<svg width="80" height="80" viewBox="0 0 80 80" fill="none" xmlns="http://www.w3.org/2000/svg">
    <rect width="80" height="80" rx="40" fill="#7935FF"/>
    <rect width="80" height="80" rx="40" fill="#1D9BF0"/>
    <g clip-path="url(#clip0_114_4973)">
        <path d="M26.0753 41.1629C22.132 38.7434 19.8297 33.2728 19.1058 30.5601C19.0891 30.4976 19.0134 30.4757 18.9633 30.5167C16.692 32.3739 17.2858 34.4297 17.4124 35.2285C17.5255 35.942 17.4358 35.8459 17.0985 35.5424C16.7141 35.1964 16.3956 34.8505 16.1995 34.674C16.1562 34.635 16.0892 34.654 16.0673 34.7079C14.8952 37.5974 16.4745 39.0896 16.7846 39.444C17.1667 39.8808 16.7427 39.7679 16.4043 39.5745C16.1387 39.4228 15.7222 39.148 15.454 39.0338C15.4014 39.0113 15.3459 39.0511 15.3433 39.1083C15.2018 42.2027 17.4002 43.3217 18.1748 43.5699C20.2611 44.2386 23.8185 44.033 23.7358 44.1529C22.8389 45.4535 22.4137 45.9979 21.9868 46.9783C20.9338 49.396 21.3823 51.4589 21.7177 52.898C22.1535 55.7588 21.122 57.0594 20.889 57.289C20.4169 57.754 20.1354 57.7769 19.8126 58.4101C19.409 59.3968 19.0054 62.1772 18.9372 63.2127V64.2891C18.9372 64.3386 18.9768 64.3788 19.0264 64.3788H22.0017C22.0355 64.3788 22.0575 64.3429 22.0409 64.3134C21.7051 63.715 21.2631 63.4458 21.0313 63.3046L21.0275 63.3023C20.9831 63.2753 20.9594 63.2245 20.9669 63.1731C21.3957 60.1989 24.0073 57.843 25.6067 56.7006C26.3601 56.1624 27.7145 54.234 28.4769 53.382C30.1362 51.2742 30.8537 50.7809 31.4942 50.3866C31.93 50.1082 31.6054 50.57 31.2252 51.0593C30.8449 51.5486 31.0067 51.5152 31.2252 51.4181C31.6288 51.2387 32.1669 51.0593 33.1536 50.8799C35.509 50.4517 40.0151 52.4496 40.5084 52.6738C43.8719 54.1537 44.0298 54.1049 44.141 54.0192C44.2601 53.9274 44.1866 53.1866 44.2453 52.9895C44.2537 52.9615 44.2786 52.9725 44.2817 53.0016C45.0851 60.6622 45.5318 61.7799 45.7555 62.6746C45.9159 63.3165 45.9209 63.9584 45.8988 64.2792C45.8951 64.3325 45.9365 64.3788 45.9899 64.3788H49.4613C49.4984 64.3788 49.5324 64.356 49.5404 64.3197C49.665 63.7538 48.5069 63.1609 48.2902 63.0742C47.8418 62.8948 47.6755 62.85 47.6839 62.6746C47.7437 61.4189 47.8812 58.6115 47.953 57.4275C48.6939 52.2661 50.5326 51.3244 51.5407 50.4763C53.9409 48.1403 54.215 45.4943 54.4342 44.5077C54.793 42.8932 54.8145 41.6415 54.9042 41.0585C55.0387 38.592 55.1733 37.0672 55.4423 35.6769C55.9805 32.2686 58.5368 32.0443 59.5682 32.0892C60.5334 32.0852 60.8024 31.9506 61.0033 31.865C61.6994 31.547 61.8788 31.4573 62.3936 31.1026C62.9551 30.6949 62.6627 30.7139 62.4833 30.7438C62.5281 30.684 62.8206 30.4677 63.5596 29.9365C64.9823 28.914 64.642 27.8474 64.5923 27.6105C64.5914 27.6062 64.5903 27.6025 64.5888 27.5983C64.1782 26.4806 61.6735 25.7201 60.3306 25.2277C59.0578 24.761 58.8896 24.6118 58.6094 24.2553C58.5765 24.2135 58.5473 24.1693 58.5233 24.1218C58.2508 23.5819 57.8219 22.3417 57.6398 22.0884C56.7197 20.8082 55.6925 20.4202 55.2905 20.1604C55.2106 20.1087 55.1718 20.0167 55.1786 19.9218C55.2196 19.3403 55.4955 18.7671 55.846 18.2764C56.1051 17.9136 56.592 17.2409 56.6981 16.9759C56.8774 16.5274 56.2328 16.7028 55.8908 16.8862C55.0621 17.3306 53.2402 18.4295 52.7067 18.7249C52.147 19.0348 52.2134 18.5863 52.3479 18.1867C52.5607 17.5549 53.0924 16.2494 53.2 15.8547C53.2682 15.3574 52.6283 15.761 52.2134 16.0789C51.3054 16.7747 49.6366 18.0638 48.8313 18.7182C48.543 18.9525 48.2148 19.1381 47.8675 19.2699C47.0461 19.5816 46.4558 19.9295 45.7106 20.3394C43.9168 21.2811 42.1229 24.0168 41.7641 24.5998C41.4053 25.1828 40.2393 27.1112 39.8806 27.6494C39.4946 28.2284 39.6797 28.0938 39.8806 28.0081C40.0735 27.919 40.2046 27.8334 40.4487 27.6743L40.4869 27.6494C40.5197 27.7447 40.2414 27.9139 40.0799 28.0173C40.0035 28.0662 39.9638 28.1436 39.9502 28.2332C39.2364 32.9249 36.7178 37.2156 35.5753 39.0853C34.0954 41.507 32.3697 41.4133 31.4942 41.4621C30.7855 41.5017 29.1417 41.5537 27.9737 41.5979C27.3107 41.623 26.6408 41.5099 26.0753 41.1629Z" fill="white"/>
    </g>
    <defs>
        <clipPath id="clip0_114_4973">
            <rect width="49.5" height="49.5" fill="white" transform="translate(15.25 15.25)"/>
        </clipPath>
    </defs>
</svg>
