<svg width="32" height="32" viewBox="0 0 32 32" fill="none" xmlns="http://www.w3.org/2000/svg">
    <g opacity="0.7">
        <path d="M26.9885 6.91467C24.9675 5.98732 22.8002 5.30409 20.5341 4.91277C20.4929 4.90522 20.4517 4.9241 20.4304 4.96184C20.1517 5.45759 19.8429 6.10433 19.6267 6.61267C17.1895 6.24778 14.7647 6.24778 12.3774 6.61267C12.1612 6.09303 11.8412 5.45759 11.5612 4.96184C11.54 4.92535 11.4987 4.90648 11.4575 4.91277C9.1927 5.30284 7.02542 5.98607 5.00311 6.91467C4.9856 6.92221 4.97059 6.93481 4.96063 6.95115C0.849754 13.0927 -0.276388 19.0833 0.27606 24.9997C0.278559 25.0286 0.294807 25.0563 0.317306 25.0739C3.02955 27.0657 5.65681 28.2749 8.23529 29.0764C8.27656 29.089 8.32028 29.0739 8.34655 29.0399C8.95649 28.207 9.50019 27.3287 9.96637 26.4051C9.99388 26.351 9.96762 26.2869 9.91139 26.2655C9.04898 25.9383 8.22779 25.5394 7.43787 25.0865C7.37538 25.05 7.37038 24.9606 7.42786 24.9178C7.59409 24.7933 7.76037 24.6637 7.91909 24.5328C7.94781 24.5089 7.98782 24.5039 8.02159 24.519C13.2111 26.8883 18.8293 26.8883 23.9575 24.519C23.9913 24.5026 24.0313 24.5077 24.0613 24.5316C24.22 24.6624 24.3863 24.7933 24.5538 24.9178C24.6112 24.9606 24.6075 25.05 24.545 25.0865C23.7551 25.5482 22.9339 25.9383 22.0702 26.2642C22.014 26.2856 21.989 26.351 22.0165 26.4051C22.4927 27.3274 23.0364 28.2057 23.6351 29.0387C23.6601 29.0739 23.7051 29.089 23.7463 29.0764C26.3373 28.2749 28.9646 27.0657 31.6768 25.0739C31.7006 25.0563 31.7156 25.0299 31.7181 25.0009C32.3792 18.161 30.6106 12.2195 27.0297 6.95241C27.021 6.93481 27.006 6.92221 26.9885 6.91467ZM10.7413 21.3972C9.17894 21.3972 7.89158 19.9628 7.89158 18.2013C7.89158 16.4397 9.15398 15.0053 10.7413 15.0053C12.3411 15.0053 13.6161 16.4523 13.591 18.2013C13.591 19.9628 12.3286 21.3972 10.7413 21.3972ZM21.2778 21.3972C19.7155 21.3972 18.4281 19.9628 18.4281 18.2013C18.4281 16.4397 19.6904 15.0053 21.2778 15.0053C22.8777 15.0053 24.1525 16.4523 24.1276 18.2013C24.1276 19.9628 22.8777 21.3972 21.2778 21.3972Z" fill="white"/>
    </g>
</svg>
