<svg width="32" height="32" viewBox="0 0 32 32" fill="none" xmlns="http://www.w3.org/2000/svg">
    <g opacity="0.7">
        <rect width="32" height="32" rx="16" fill="#0F1419" fill-opacity="0.3"/>
        <path fill-rule="evenodd" clip-rule="evenodd" d="M15.9957 5.6001C13.396 5.60145 10.8816 6.52221 8.90199 8.19773C6.9224 9.87326 5.60676 12.1943 5.1903 14.7458C4.77384 17.2973 5.28373 19.9129 6.6288 22.125C7.97387 24.337 10.0664 26.0012 12.5322 26.8199C13.0762 26.9209 13.2811 26.5837 13.2811 26.297C13.2811 26.0104 13.2703 25.1792 13.2666 24.2704C10.2202 24.9285 9.57648 22.9849 9.57648 22.9849C9.07963 21.7228 8.36154 21.391 8.36154 21.391C7.36783 20.7167 8.4359 20.7293 8.4359 20.7293C9.53659 20.8068 10.1151 21.8526 10.1151 21.8526C11.0906 23.5168 12.6773 23.0354 13.3011 22.7541C13.399 22.0491 13.6837 21.5695 13.9974 21.2972C11.5639 21.0232 9.00709 20.0892 9.00709 15.917C8.99201 14.835 9.39583 13.7886 10.135 12.9943C10.0226 12.7203 9.6472 11.6132 10.242 10.1095C10.242 10.1095 11.1613 9.81738 13.2539 11.2255C15.0488 10.7375 16.9426 10.7375 18.7375 11.2255C20.8283 9.81738 21.7458 10.1095 21.7458 10.1095C22.3424 11.6096 21.967 12.7166 21.8546 12.9943C22.5961 13.7887 23.0008 14.8369 22.9843 15.9206C22.9843 20.1018 20.4221 21.0232 17.9849 21.2918C18.3766 21.6308 18.7266 22.2925 18.7266 23.3094C18.7266 24.7663 18.7139 25.9382 18.7139 26.297C18.7139 26.5873 18.9116 26.9263 19.4664 26.8199C21.9326 26.0011 24.0253 24.3366 25.3703 22.1242C26.7154 19.9118 27.225 17.2958 26.8081 14.744C26.3911 12.1923 25.0748 9.87122 23.0946 8.19598C21.1144 6.52074 18.5993 5.60059 15.9993 5.6001H15.9957Z" fill="#FAFAFA"/>
        <path d="M9.19199 21.234C9.16841 21.2881 9.08137 21.3043 9.01065 21.2665C8.93993 21.2286 8.88735 21.1583 8.91274 21.1024C8.93812 21.0465 9.02335 21.0321 9.09407 21.0699C9.16479 21.1078 9.21919 21.1799 9.19199 21.234Z" fill="#0F1419" fill-opacity="0.3"/>
        <path d="M9.63638 21.7262C9.59882 21.745 9.55586 21.7502 9.51484 21.741C9.47382 21.7318 9.4373 21.7087 9.41153 21.6757C9.34081 21.5999 9.32629 21.4954 9.38069 21.4485C9.43509 21.4016 9.53302 21.4233 9.60374 21.499C9.67446 21.5747 9.69078 21.6793 9.63638 21.7262Z" fill="#0F1419" fill-opacity="0.3"/>
        <path d="M10.0679 22.352C10.0008 22.3989 9.88654 22.352 9.82307 22.2582C9.80552 22.2414 9.79157 22.2213 9.78203 22.199C9.7725 22.1766 9.76758 22.1527 9.76758 22.1284C9.76758 22.1042 9.7725 22.0802 9.78203 22.0579C9.79157 22.0356 9.80552 22.0154 9.82307 21.9986C9.89017 21.9535 10.0044 21.9986 10.0679 22.0906C10.1313 22.1825 10.1332 22.3051 10.0679 22.352Z" fill="#0F1419" fill-opacity="0.3"/>
        <path d="M10.6534 22.9576C10.5936 23.0243 10.4721 23.0063 10.3724 22.9162C10.2726 22.826 10.2491 22.7034 10.3089 22.6385C10.3687 22.5736 10.4902 22.5916 10.5936 22.68C10.697 22.7683 10.7169 22.8927 10.6534 22.9576Z" fill="#0F1419" fill-opacity="0.3"/>
        <path d="M11.4748 23.311C11.4476 23.3958 11.3243 23.4336 11.201 23.3976C11.0777 23.3615 10.9961 23.2605 11.0197 23.174C11.0433 23.0874 11.1684 23.0478 11.2935 23.0874C11.4186 23.1271 11.4984 23.2227 11.4748 23.311Z" fill="#0F1419" fill-opacity="0.3"/>
        <path d="M12.371 23.3723C12.371 23.4607 12.2695 23.5364 12.1389 23.5382C12.0084 23.54 11.9014 23.4679 11.9014 23.3795C11.9014 23.2912 12.0029 23.2155 12.1335 23.2137C12.264 23.2119 12.371 23.2822 12.371 23.3723Z" fill="#0F1419" fill-opacity="0.3"/>
        <path d="M13.2052 23.2336C13.2215 23.322 13.1308 23.4139 13.0003 23.4355C12.8697 23.4572 12.7555 23.4049 12.7391 23.3183C12.7228 23.2318 12.8171 23.138 12.9441 23.1146C13.071 23.0912 13.1889 23.1453 13.2052 23.2336Z" fill="#0F1419" fill-opacity="0.3"/>
    </g>
</svg>
