<svg width="32" height="32" viewBox="0 0 32 32" fill="none" xmlns="http://www.w3.org/2000/svg">
    <g opacity="0.7">
        <path d="M18.0499 16.3038C18.0499 21.3314 14.0093 25.4071 9.02511 25.4071C4.04097 25.4071 0 21.3305 0 16.3038C0 11.2771 4.04067 7.2002 9.02511 7.2002C14.0096 7.2002 18.0499 11.2762 18.0499 16.3038Z" fill="white"/>
        <path d="M27.9504 16.3037C27.9504 21.0362 25.9301 24.8741 23.4379 24.8741C20.9456 24.8741 18.9253 21.0362 18.9253 16.3037C18.9253 11.5713 20.9453 7.7334 23.4375 7.7334C25.9298 7.7334 27.9501 11.5701 27.9501 16.3037" fill="white"/>
        <path d="M32 16.3036C32 20.5427 31.2896 23.9813 30.4129 23.9813C29.5363 23.9813 28.8262 20.5437 28.8262 16.3036C28.8262 12.0636 29.5366 8.62598 30.4129 8.62598C31.2893 8.62598 32 12.0633 32 16.3036Z" fill="white"/>
    </g>
</svg>
