<svg width="32" height="32" viewBox="0 0 32 32" fill="none" xmlns="http://www.w3.org/2000/svg">
    <g opacity="0.7">
        <path fill-rule="evenodd" clip-rule="evenodd" d="M2.71595 15.0578C10.9846 11.4552 16.4983 9.08025 19.2571 7.93277C27.1341 4.65648 28.7708 4.08735 29.8377 4.06856C30.0723 4.06443 30.5969 4.12258 30.9368 4.39833C31.2237 4.63117 31.3027 4.9457 31.3404 5.16646C31.3782 5.38721 31.4253 5.8901 31.3879 6.28305C30.961 10.768 29.114 21.6519 28.1744 26.6752C27.7768 28.8007 26.9939 29.5134 26.236 29.5832C24.5888 29.7347 23.3381 28.4946 21.7427 27.4489C19.2463 25.8124 17.836 24.7938 15.4128 23.1969C12.6124 21.3515 14.4278 20.3372 16.0238 18.6796C16.4414 18.2458 23.6988 11.6447 23.8393 11.0459C23.8568 10.971 23.8731 10.6918 23.7073 10.5444C23.5414 10.397 23.2967 10.4474 23.12 10.4875C22.8696 10.5443 18.8816 13.1803 11.156 18.3953C10.024 19.1726 8.99867 19.5513 8.08002 19.5315C7.06728 19.5096 5.11918 18.9589 3.67097 18.4881C1.89468 17.9107 0.482918 17.6054 0.605851 16.6248C0.669882 16.1141 1.37325 15.5917 2.71595 15.0578Z" fill="white"/>
    </g>
</svg>
