<svg width="32" height="32" viewBox="0 0 32 32" fill="none" xmlns="http://www.w3.org/2000/svg">
    <g opacity="0.7">
        <path d="M28.0758 9.57429C28.0882 9.85589 28.0882 10.1247 28.0882 10.4063C28.1005 18.9439 21.8279 28.8 10.3569 28.8C6.97365 28.8 3.65212 27.7887 0.799805 25.8943C1.29371 25.9583 1.78762 25.9839 2.28153 25.9839C5.08445 25.9839 7.81329 25.0111 10.0235 23.2063C7.35642 23.1551 5.01037 21.3503 4.19542 18.7135C5.13384 18.9055 6.09696 18.8671 7.01069 18.5983C4.10898 18.0095 2.02223 15.3599 2.00988 12.2751C2.00988 12.2495 2.00988 12.2239 2.00988 12.1983C2.87422 12.6975 3.84968 12.9791 4.8375 13.0047C2.10866 11.1103 1.25667 7.33428 2.91126 4.37747C6.08461 8.42229 10.752 10.8671 15.7652 11.1359C15.2589 8.89589 15.9504 6.54068 17.568 4.95347C20.0745 2.50867 24.0258 2.63667 26.3966 5.23508C27.7918 4.95347 29.1377 4.41587 30.3602 3.66067C29.8909 5.15828 28.9155 6.42548 27.619 7.23188C28.8537 7.07828 30.0638 6.73268 31.1998 6.22068C30.3602 7.52628 29.2983 8.65269 28.0758 9.57429Z" fill="#0F1419" fill-opacity="0.3"/>
    </g>
</svg>
