<svg width="32" height="32" viewBox="0 0 32 32" fill="none" xmlns="http://www.w3.org/2000/svg">
    <g opacity="0.7">
        <path d="M28.0758 9.57453C28.0882 9.85613 28.0882 10.1249 28.0882 10.4065C28.1005 18.9442 21.8279 28.8002 10.3569 28.8002C6.97365 28.8002 3.65212 27.789 0.799805 25.8946C1.29371 25.9586 1.78762 25.9842 2.28153 25.9842C5.08445 25.9842 7.81329 25.0114 10.0235 23.2066C7.35642 23.1554 5.01037 21.3506 4.19542 18.7138C5.13384 18.9058 6.09696 18.8674 7.01069 18.5986C4.10898 18.0098 2.02223 15.3602 2.00988 12.2753C2.00988 12.2497 2.00988 12.2241 2.00988 12.1985C2.87422 12.6977 3.84968 12.9793 4.8375 13.0049C2.10866 11.1105 1.25667 7.33453 2.91126 4.37772C6.08461 8.42253 10.752 10.8673 15.7652 11.1361C15.2589 8.89613 15.9504 6.54092 17.568 4.95372C20.0745 2.50891 24.0258 2.63691 26.3966 5.23532C27.7918 4.95372 29.1377 4.41612 30.3602 3.66091C29.8909 5.15852 28.9155 6.42572 27.619 7.23213C28.8537 7.07853 30.0638 6.73292 31.1998 6.22092C30.3602 7.52653 29.2983 8.65293 28.0758 9.57453Z" fill="white"/>
    </g>
</svg>
