<svg width="337" height="337" viewBox="0 0 337 337" fill="none" xmlns="http://www.w3.org/2000/svg">
    <rect width="337" height="337" rx="168.5" fill="#7935FF"/>
    <rect width="337" height="337" rx="168.5" fill="#1D9BF0"/>
    <g clip-path="url(#clip0_385_8237)">
        <path d="M109.842 173.399C93.2311 163.207 83.5325 140.162 80.4833 128.735C80.413 128.471 80.0939 128.379 79.8828 128.552C70.3152 136.375 72.8166 145.035 73.3498 148.4C73.826 151.406 73.4482 151.001 72.0274 149.723C70.4082 148.265 69.0666 146.808 68.2404 146.065C68.058 145.9 67.7758 145.98 67.6836 146.208C62.7461 158.379 69.3986 164.665 70.7049 166.158C72.3147 167.998 70.5284 167.523 69.1031 166.708C67.9843 166.069 66.2297 164.911 65.1001 164.43C64.8783 164.336 64.6447 164.503 64.6337 164.744C64.0375 177.779 73.2985 182.493 76.5613 183.539C85.3498 186.355 100.335 185.49 99.9869 185.995C96.2086 191.473 94.4178 193.767 92.6192 197.896C88.1836 208.081 90.0728 216.771 91.4857 222.833C93.3215 234.884 88.9764 240.363 87.9947 241.33C86.0062 243.289 84.8203 243.386 83.4607 246.053C81.7604 250.209 80.0602 261.922 79.7729 266.284V270.818C79.7729 271.027 79.9399 271.196 80.1485 271.196H92.6822C92.8244 271.196 92.917 271.045 92.8474 270.921C91.4326 268.4 89.5709 267.266 88.5943 266.671L88.5781 266.661C88.3912 266.547 88.2916 266.334 88.3229 266.117C90.1293 253.588 101.131 243.664 107.868 238.852C111.042 236.585 116.747 228.461 119.959 224.872C126.949 215.993 129.971 213.915 132.669 212.254C134.505 211.081 133.138 213.027 131.536 215.088C129.934 217.149 130.616 217.008 131.536 216.599C133.236 215.843 135.503 215.088 139.659 214.332C149.581 212.528 168.564 220.944 170.642 221.889C184.81 228.123 185.476 227.917 185.944 227.556C186.446 227.17 186.136 224.049 186.383 223.219C186.419 223.101 186.524 223.147 186.537 223.269C189.921 255.54 191.803 260.248 192.745 264.017C193.421 266.721 193.442 269.425 193.348 270.776C193.333 271.001 193.507 271.196 193.733 271.196H208.356C208.512 271.196 208.655 271.1 208.689 270.947C209.214 268.563 204.335 266.065 203.423 265.7C201.533 264.945 200.833 264.756 200.868 264.017C201.12 258.727 201.7 246.901 202.002 241.914C205.123 220.171 212.868 216.204 217.115 212.632C227.226 202.791 228.381 191.645 229.304 187.489C230.815 180.688 230.906 175.415 231.284 172.959C231.851 162.569 232.417 156.146 233.551 150.289C235.818 135.932 246.586 134.987 250.931 135.176C254.997 135.159 256.13 134.592 256.976 134.231C259.909 132.892 260.664 132.514 262.833 131.02C265.198 129.303 263.966 129.383 263.211 129.509C263.4 129.257 264.632 128.346 267.745 126.108C273.738 121.801 272.304 117.307 272.095 116.31C272.091 116.291 272.087 116.276 272.08 116.258C270.351 111.55 259.8 108.346 254.143 106.272C248.781 104.306 248.073 103.677 246.892 102.176C246.754 102 246.63 101.814 246.529 101.613C245.381 99.3389 243.575 94.1148 242.808 93.0477C238.932 87.655 234.605 86.0205 232.911 84.9259C232.574 84.7083 232.411 84.3208 232.44 83.921C232.613 81.4714 233.775 79.0566 235.251 76.9898C236.343 75.4615 238.394 72.6277 238.84 71.5112C239.596 69.622 236.881 70.3607 235.44 71.1334C231.949 73.0056 224.274 77.6346 222.027 78.8789C219.669 80.1844 219.949 78.2952 220.516 76.6119C221.412 73.9502 223.652 68.4508 224.105 66.7883C224.392 64.6933 221.697 66.3935 219.949 67.7329C216.124 70.6636 209.094 76.0941 205.702 78.8506C204.487 79.8376 203.105 80.6194 201.642 81.1748C198.182 82.4879 195.695 83.9536 192.556 85.6799C184.999 89.6472 177.443 101.171 175.931 103.627C174.42 106.083 169.508 114.206 167.997 116.473C166.371 118.912 167.151 118.346 167.997 117.985C168.81 117.609 169.362 117.249 170.39 116.578L170.551 116.473C170.689 116.875 169.517 117.588 168.837 118.023C168.515 118.229 168.348 118.555 168.29 118.933C165.283 138.697 154.674 156.771 149.861 164.647C143.627 174.849 136.357 174.454 132.669 174.66C129.684 174.826 122.759 175.045 117.839 175.231C115.046 175.337 112.224 174.861 109.842 173.399Z" fill="white"/>
    </g>
    <defs>
        <clipPath id="clip0_385_8237">
            <rect width="208.519" height="208.519" fill="white" transform="translate(64.2406 64.2407)"/>
        </clipPath>
    </defs>
</svg>
