<svg width="413" height="38" viewBox="0 0 413 38" fill="none" xmlns="http://www.w3.org/2000/svg">
<path d="M16.688 1.512H26.32V37.464H16.688V23.24H9.632V37.464H0V1.512H9.632V16.24H16.688V1.512Z" fill="#0F1419"/>
<path d="M38.4611 9.52H45.5731C48.4104 9.52 50.4451 10.1173 51.6771 11.312C52.9091 12.5067 53.5251 14.224 53.5251 16.464V30.52C53.5251 32.76 52.9091 34.4773 51.6771 35.672C50.4451 36.8667 48.4104 37.464 45.5731 37.464H38.4611C35.6237 37.464 33.5891 36.8667 32.3571 35.672C31.1251 34.4773 30.5091 32.76 30.5091 30.52V16.464C30.5091 14.224 31.1251 12.5067 32.3571 11.312C33.5891 10.1173 35.6237 9.52 38.4611 9.52ZM44.1731 29.624V17.36C44.1731 16.5387 43.7064 16.128 42.7731 16.128H41.2611C40.3277 16.128 39.8611 16.5387 39.8611 17.36V29.624C39.8611 30.4453 40.3277 30.856 41.2611 30.856H42.7731C43.7064 30.856 44.1731 30.4453 44.1731 29.624Z" fill="#0F1419"/>
<path d="M84.518 9.52H93.254L87.262 37.464H77.798L74.382 21L70.91 37.464H61.446L55.79 9.52H64.638L66.71 27.16L70.35 9.52H78.694L81.942 27.048L84.518 9.52Z" fill="#0F1419"/>
<path d="M121.137 16.52H117.609V29.232C117.609 30.0533 118.075 30.464 119.009 30.464H121.081V37.464H116.321C110.833 37.464 108.089 35.1493 108.089 30.52V16.52H105.009V9.52H108.089V4.032H117.609V9.52H121.137V16.52Z" fill="#0F1419"/>
<path d="M131.594 9.52H138.706C141.543 9.52 143.578 10.1173 144.81 11.312C146.042 12.5067 146.658 14.224 146.658 16.464V30.52C146.658 32.76 146.042 34.4773 144.81 35.672C143.578 36.8667 141.543 37.464 138.706 37.464H131.594C128.757 37.464 126.722 36.8667 125.49 35.672C124.258 34.4773 123.642 32.76 123.642 30.52V16.464C123.642 14.224 124.258 12.5067 125.49 11.312C126.722 10.1173 128.757 9.52 131.594 9.52ZM137.306 29.624V17.36C137.306 16.5387 136.839 16.128 135.906 16.128H134.394C133.461 16.128 132.994 16.5387 132.994 17.36V29.624C132.994 30.4453 133.461 30.856 134.394 30.856H135.906C136.839 30.856 137.306 30.4453 137.306 29.624Z" fill="#0F1419"/>
<path d="M175.198 9.52H184.718V37.464H175.366V33.88C174.843 36.2693 173.144 37.464 170.27 37.464H169.262C164.296 37.464 161.814 35.1493 161.814 30.52V9.52H171.334V29.232C171.334 30.0533 171.8 30.464 172.734 30.464H173.686C174.694 30.464 175.198 29.904 175.198 28.784V9.52Z" fill="#0F1419"/>
<path d="M201.259 30.072V27.832C201.259 27.0107 200.792 26.6 199.859 26.6H196.443C191.067 26.6 188.379 24.304 188.379 19.712V16.464C188.379 11.8347 191.123 9.52 196.611 9.52H201.819C207.307 9.52 210.051 11.8347 210.051 16.464V18.816H200.979V16.912C200.979 16.0907 200.512 15.68 199.579 15.68H199.019C198.085 15.68 197.619 16.0907 197.619 16.912V19.376C197.619 20.1973 198.085 20.608 199.019 20.608H202.435C205.309 20.608 207.363 21.2053 208.595 22.4C209.864 23.5573 210.499 25.2373 210.499 27.44V30.52C210.499 35.1493 207.755 37.464 202.267 37.464H196.779C191.291 37.464 188.547 35.1493 188.547 30.52V28.224H197.787V30.072C197.787 30.8933 198.253 31.304 199.187 31.304H199.859C200.792 31.304 201.259 30.8933 201.259 30.072Z" fill="#0F1419"/>
<path d="M221.828 9.52H228.66C234.148 9.52 236.892 11.8347 236.892 16.464V25.984H222.612V29.68C222.612 30.5013 223.079 30.912 224.012 30.912H226.476C227.41 30.912 227.876 30.464 227.876 29.568V28H236.892V30.52C236.892 35.1493 234.148 37.464 228.66 37.464H221.828C216.34 37.464 213.596 35.1493 213.596 30.52V16.464C213.596 11.8347 216.34 9.52 221.828 9.52ZM222.612 20.832H227.876V17.304C227.876 16.4827 227.41 16.072 226.476 16.072H224.012C223.079 16.072 222.612 16.4827 222.612 17.304V20.832Z" fill="#0F1419"/>
<path d="M286.055 1.512H295.743L288.127 37.464H276.871L272.895 16.016L268.919 37.464H257.663L250.047 1.512H260.239L263.263 25.704L268.079 1.512H277.655L282.471 25.704L286.055 1.512Z" fill="#0F1419"/>
<path d="M306.211 9.52H313.323C316.16 9.52 318.195 10.1173 319.427 11.312C320.659 12.5067 321.275 14.224 321.275 16.464V30.52C321.275 32.76 320.659 34.4773 319.427 35.672C318.195 36.8667 316.16 37.464 313.323 37.464H306.211C303.374 37.464 301.339 36.8667 300.107 35.672C298.875 34.4773 298.259 32.76 298.259 30.52V16.464C298.259 14.224 298.875 12.5067 300.107 11.312C301.339 10.1173 303.374 9.52 306.211 9.52ZM311.923 29.624V17.36C311.923 16.5387 311.456 16.128 310.523 16.128H309.011C308.078 16.128 307.611 16.5387 307.611 17.36V29.624C307.611 30.4453 308.078 30.856 309.011 30.856H310.523C311.456 30.856 311.923 30.4453 311.923 29.624Z" fill="#0F1419"/>
<path d="M333.172 9.52H340.284C343.121 9.52 345.156 10.1173 346.388 11.312C347.62 12.5067 348.236 14.224 348.236 16.464V30.52C348.236 32.76 347.62 34.4773 346.388 35.672C345.156 36.8667 343.121 37.464 340.284 37.464H333.172C330.335 37.464 328.3 36.8667 327.068 35.672C325.836 34.4773 325.22 32.76 325.22 30.52V16.464C325.22 14.224 325.836 12.5067 327.068 11.312C328.3 10.1173 330.335 9.52 333.172 9.52ZM338.884 29.624V17.36C338.884 16.5387 338.417 16.128 337.484 16.128H335.972C335.039 16.128 334.572 16.5387 334.572 17.36V29.624C334.572 30.4453 335.039 30.856 335.972 30.856H337.484C338.417 30.856 338.884 30.4453 338.884 29.624Z" fill="#0F1419"/>
<path d="M367.525 6.72H364.557C363.624 6.72 363.157 7.13067 363.157 7.952V9.52H367.525V16.52H363.157V37.464H353.637V16.52H350.781V9.52H353.637V6.944C353.637 2.31467 356.381 0 361.869 0H367.525V6.72Z" fill="#0F1419"/>
<path d="M377.742 9.52H384.574C390.062 9.52 392.806 11.8347 392.806 16.464V25.984H378.526V29.68C378.526 30.5013 378.993 30.912 379.926 30.912H382.39C383.324 30.912 383.79 30.464 383.79 29.568V28H392.806V30.52C392.806 35.1493 390.062 37.464 384.574 37.464H377.742C372.254 37.464 369.51 35.1493 369.51 30.52V16.464C369.51 11.8347 372.254 9.52 377.742 9.52ZM378.526 20.832H383.79V17.304C383.79 16.4827 383.324 16.072 382.39 16.072H379.926C378.993 16.072 378.526 16.4827 378.526 17.304V20.832Z" fill="#0F1419"/>
<path d="M411.83 9.24H412.67V17.528H409.478C407.126 17.528 405.95 18.7973 405.95 21.336V37.464H396.43V9.52H405.782V13.832C406.08 12.4133 406.752 11.2933 407.798 10.472C408.843 9.65067 410.187 9.24 411.83 9.24Z" fill="#0F1419"/>
</svg>
