<svg width="120" height="120" viewBox="0 0 120 120" fill="none" xmlns="http://www.w3.org/2000/svg">
    <rect width="120" height="120" rx="60" fill="url(#paint0_linear_1222_3736)" fill-opacity="0.15"/>
    <path d="M53.8385 46.9767C52.5423 48.258 51.419 49.7031 50.4972 51.2754C49.6741 52.4854 49.3601 53.9707 49.623 55.4103C49.7544 56.0334 50.0834 56.5974 50.5612 57.0183C51.039 57.4393 51.64 57.6946 52.2747 57.7464C53.0911 57.8129 53.9125 57.7068 54.6853 57.4352C55.4581 57.1635 56.1651 56.7323 56.7605 56.1696C57.935 55.0173 59.3692 54.1641 60.9424 53.6819C61.0916 53.6262 61.2538 53.6152 61.4091 53.6504C61.5644 53.6856 61.706 53.7654 61.8166 53.88L75.9276 66.8477C76.1685 67.0285 76.3685 67.2583 76.5144 67.5218C76.6604 67.7854 76.7489 68.0768 76.7743 68.377C76.7997 68.6772 76.7614 68.9793 76.6618 69.2636C76.5623 69.548 76.4037 69.808 76.1966 70.0268C75.9895 70.2455 75.7384 70.418 75.46 70.533C75.1815 70.6479 74.8819 70.7027 74.5807 70.6937C74.2796 70.6847 73.9838 70.6121 73.7127 70.4808C73.4416 70.3495 73.2013 70.1623 73.0076 69.9316C70.6712 67.6653 68.3351 65.3952 65.9992 63.1213C65.8895 63.0331 65.7843 62.9395 65.6837 62.8406C65.403 62.5367 65.0643 62.3032 64.7159 62.689C64.3676 63.0748 64.6224 63.3432 64.9147 63.6116L67.5779 66.2045L71.0824 69.6238C71.3291 69.8203 71.5312 70.067 71.675 70.3477C71.8189 70.6283 71.9013 70.9364 71.9168 71.2514C71.9322 71.5665 71.8803 71.8811 71.7646 72.1745C71.6489 72.4679 71.472 72.7332 71.2456 72.9529C71.0163 73.1666 70.7463 73.3319 70.4517 73.4391C70.1571 73.5463 69.844 73.5931 69.531 73.5767C69.2179 73.5603 68.9114 73.4811 68.6296 73.3438C68.3478 73.2065 68.0966 73.0138 67.8908 72.7774L61.9334 66.598C61.8333 66.4804 61.7239 66.371 61.6063 66.2709C61.5097 66.1758 61.3796 66.1224 61.244 66.1224C61.1084 66.1224 60.9783 66.1758 60.8818 66.2709C60.8297 66.3126 60.7868 66.3644 60.7555 66.4233C60.7242 66.4821 60.7052 66.5467 60.6997 66.6131C60.6942 66.6796 60.7023 66.7464 60.7235 66.8096C60.7447 66.8728 60.7786 66.931 60.823 66.9806C60.9282 67.1206 61.0566 67.2387 61.1734 67.3677C62.7734 69.0264 64.3624 70.6967 65.974 72.3554C66.1853 72.5519 66.3553 72.7885 66.4742 73.0514C66.5931 73.3143 66.6584 73.5982 66.6664 73.8866C66.6743 74.175 66.6248 74.4621 66.5206 74.7311C66.4165 75.0002 66.2598 75.2458 66.0597 75.4537C65.8596 75.6615 65.6201 75.8274 65.3552 75.9417C65.0903 76.056 64.8053 76.1165 64.5168 76.1194C64.2283 76.1224 63.9421 76.0679 63.6749 75.9591C63.4077 75.8503 63.1648 75.6894 62.9605 75.4858C61.0798 73.6284 59.2108 71.7361 57.3418 69.8554C57.2385 69.7444 57.1293 69.6391 57.0147 69.54C56.9106 69.4522 56.776 69.4091 56.6403 69.4201C56.5046 69.4311 56.3787 69.4953 56.2901 69.5987C56.2406 69.6436 56.201 69.6983 56.1739 69.7594C56.1468 69.8205 56.1328 69.8867 56.1328 69.9535C56.1328 70.0204 56.1468 70.0865 56.1739 70.1476C56.201 70.2087 56.2406 70.2635 56.2901 70.3084C56.4656 70.5187 56.6637 70.6955 56.8508 70.8806C58.2527 72.2825 59.6779 73.6722 61.0559 75.0974C61.2973 75.3111 61.4759 75.5866 61.5726 75.8942C61.6693 76.2017 61.6804 76.5298 61.6047 76.8433C61.5291 77.1567 61.3695 77.4436 61.1431 77.6731C60.9167 77.9027 60.6321 78.0663 60.3198 78.1464C60.0136 78.2183 59.6945 78.2155 59.3895 78.1382C59.0846 78.061 58.8027 77.9116 58.5676 77.7025C56.6596 76.3008 54.7828 74.86 52.9372 73.38C48.3078 69.7392 43.9764 65.7347 39.9843 61.4045C39.8761 61.3068 39.801 61.1778 39.7696 61.0355C39.7381 60.8931 39.7518 60.7445 39.8089 60.6103C41.1641 56.1935 42.5076 51.7813 43.8392 47.3735C43.9327 47.0696 44.0379 46.9413 44.3766 46.9529H53.5347L53.8385 46.9767Z" fill="white"/>
    <path d="M61.3844 44.3364C62.0277 44.3674 62.6607 44.5098 63.2554 44.7571L74.3476 49.1609C74.4705 49.2044 74.5818 49.2754 74.6729 49.3686C74.7641 49.4617 74.8327 49.5745 74.8734 49.6983C76.5478 54.3005 78.23 58.8951 79.9199 63.4822C79.9901 63.6144 80.0177 63.765 79.9989 63.9134C79.98 64.0619 79.9157 64.2008 79.8147 64.3113C79.2202 65.1899 78.3616 65.8567 77.3631 66.2151C77.2515 66.2586 77.1293 66.2674 77.0126 66.2403C76.8959 66.2133 76.7901 66.1517 76.7089 66.0635C72.0367 61.7409 67.2825 57.4429 62.5979 53.0861C62.3435 52.8122 62.0131 52.6203 61.649 52.535C61.285 52.4498 60.9038 52.475 60.5541 52.6074C58.8006 53.1792 57.202 54.1465 55.8818 55.4345C55.4212 55.8775 54.8677 56.2122 54.2615 56.4143C53.6552 56.6164 53.0116 56.6808 52.3773 56.6029C52.1052 56.5731 51.842 56.4878 51.6042 56.3523C51.3663 56.2167 51.1589 56.0338 50.9946 55.8148C50.8303 55.5958 50.7128 55.3454 50.6492 55.0791C50.5856 54.8128 50.5774 54.5363 50.625 54.2667C50.6934 53.5649 50.9041 52.8844 51.2444 52.2667C52.9217 49.0179 55.622 46.4116 58.9283 44.8506C59.7004 44.5091 60.5356 44.3333 61.3799 44.3345L61.3844 44.3364Z" fill="white"/>
    <path d="M87.0242 66.6475H83.241C82.4236 66.6475 82.0726 65.9817 81.7571 65.2572C80.4633 61.6907 79.1586 58.1327 77.8429 54.583C77.1539 52.6907 76.5229 50.7869 75.752 48.9294C75.6046 48.6664 75.5206 48.3725 75.5067 48.0713C75.4927 47.7701 75.5492 47.4698 75.6716 47.1942C75.7941 46.9186 75.9791 46.6754 76.212 46.4839C76.4449 46.2923 76.7192 46.1577 77.0132 46.0907C80.2164 44.9249 83.6194 44.408 87.0242 44.5701V66.6475Z" fill="white"/>
    <path d="M32.9759 41.8139C36.1938 41.7036 39.3931 42.3442 42.3204 43.6849C42.5307 43.7809 42.7192 43.9186 42.8746 44.0897C43.03 44.2608 43.149 44.4616 43.2244 44.6801C43.2998 44.8986 43.3299 45.1302 43.313 45.3607C43.2962 45.5912 43.2326 45.8159 43.1262 46.021L38.8165 60.3049C38.5714 61.0759 38.3262 61.8585 38.092 62.641C38.0216 63.0367 37.8099 63.3934 37.4962 63.6447C37.1826 63.8961 36.7884 64.025 36.3869 64.0075H32.9759V41.8139Z" fill="white"/>
    <rect x="1" y="1" width="118" height="118" rx="59" stroke="url(#paint1_linear_1222_3736)" stroke-opacity="0.7" stroke-width="2"/>
    <defs>
        <linearGradient id="paint0_linear_1222_3736" x1="111.5" y1="17.5" x2="-27" y2="161.5" gradientUnits="userSpaceOnUse">
            <stop stop-color="#1D9BF0"/>
            <stop offset="1" stop-color="#345CF0"/>
        </linearGradient>
        <linearGradient id="paint1_linear_1222_3736" x1="111.5" y1="17.5" x2="-27" y2="161.5" gradientUnits="userSpaceOnUse">
            <stop stop-color="#1D9BF0"/>
            <stop offset="1" stop-color="#345CF0"/>
        </linearGradient>
    </defs>
</svg>
