<svg width="120" height="120" viewBox="0 0 120 120" fill="none" xmlns="http://www.w3.org/2000/svg">
    <g filter="url(#filter0_b_1236_4074)">
        <rect width="120" height="120" rx="60" fill="url(#paint0_linear_1236_4074)" fill-opacity="0.07"/>
        <path fill-rule="evenodd" clip-rule="evenodd" d="M55.3368 41.3986C52.6528 41.7487 50.1605 43.2031 48.5393 45.3652C47.0276 47.3816 46.2823 49.9871 46.5253 52.4072C46.7868 55.0148 47.8584 57.1879 49.7715 58.9911C50.133 59.3318 50.4153 59.6229 50.399 59.6379C50.3825 59.653 50.045 59.8281 49.6488 60.0269C49.2527 60.2259 48.5576 60.6392 48.1042 60.9455C44.03 63.6991 41.492 68.3773 41.4332 73.2426C41.4186 74.452 41.5038 74.876 41.9524 75.827C42.5325 77.0566 43.7507 78.069 45.1815 78.5106C45.5795 78.6334 46.5328 78.6471 56.2301 78.6701C63.4206 78.687 67.0221 78.6681 67.3978 78.611C68.6442 78.4217 69.7353 77.8453 70.5292 76.9566C70.9886 76.4422 71.577 75.2905 71.7075 74.6502C71.8314 74.0431 71.8131 72.5552 71.6695 71.521C71.0635 67.1582 68.6334 63.2783 64.9821 60.8437C64.6118 60.5969 63.9614 60.2154 63.5368 59.996L62.7644 59.5972L63.2199 59.2153C63.7888 58.7383 64.1913 58.2993 64.7589 57.5365C66.9375 54.6089 67.3428 50.6017 65.8035 47.2101C65.176 45.8276 63.8828 44.2333 62.6485 43.3203C60.608 41.811 57.8109 41.0759 55.3368 41.3986ZM72.8236 53.369C72.4608 53.527 72.2124 53.7661 72.0059 54.1568C71.8648 54.4232 71.8329 54.6445 71.808 55.5208L71.7781 56.5669L70.7363 56.5967C69.619 56.6287 69.2774 56.7313 68.8865 57.1521C68.2861 57.7984 68.3363 58.9132 68.9943 59.5403C69.3923 59.9196 69.7143 60.0018 70.801 60.0018H71.7934V60.8811C71.7934 62.0669 71.8893 62.4119 72.3464 62.8706C73.1801 63.7079 74.4707 63.5061 74.9913 62.4568C75.183 62.0706 75.1991 61.9594 75.1991 61.02V60.0018H76.2132C77.1487 60.0018 77.2597 59.9857 77.6442 59.7931C78.6527 59.2885 78.877 58.05 78.1169 57.183C77.6989 56.7064 77.2814 56.5821 76.0956 56.5821H75.1991V55.5856C75.1991 54.4945 75.1173 54.1712 74.7395 53.7717C74.2601 53.2644 73.4532 53.0948 72.8236 53.369Z" fill="#1D9BF0"/>
        <rect x="1" y="1" width="118" height="118" rx="59" stroke="url(#paint1_linear_1236_4074)" stroke-opacity="0.4" stroke-width="2"/>
    </g>
    <defs>
        <filter id="filter0_b_1236_4074" x="-4" y="-4" width="128" height="128" filterUnits="userSpaceOnUse" color-interpolation-filters="sRGB">
            <feFlood flood-opacity="0" result="BackgroundImageFix"/>
            <feGaussianBlur in="BackgroundImage" stdDeviation="2"/>
            <feComposite in2="SourceAlpha" operator="in" result="effect1_backgroundBlur_1236_4074"/>
            <feBlend mode="normal" in="SourceGraphic" in2="effect1_backgroundBlur_1236_4074" result="shape"/>
        </filter>
        <linearGradient id="paint0_linear_1236_4074" x1="111.5" y1="17.5" x2="-27" y2="161.5" gradientUnits="userSpaceOnUse">
            <stop stop-color="#1D9BF0"/>
            <stop offset="1" stop-color="#345CF0"/>
        </linearGradient>
        <linearGradient id="paint1_linear_1236_4074" x1="111.5" y1="17.5" x2="-27" y2="161.5" gradientUnits="userSpaceOnUse">
            <stop stop-color="#1D9BF0"/>
            <stop offset="1" stop-color="#345CF0"/>
        </linearGradient>
    </defs>
</svg>
