<svg width="120" height="120" viewBox="0 0 120 120" fill="none" xmlns="http://www.w3.org/2000/svg">
    <rect width="120" height="120" rx="60" fill="url(#paint0_linear_1236_4091)" fill-opacity="0.07"/>
    <path d="M53.8384 46.9767C52.5421 48.258 51.4189 49.7031 50.4971 51.2754C49.674 52.4854 49.36 53.9707 49.6229 55.4103C49.7543 56.0334 50.0833 56.5974 50.5611 57.0183C51.0389 57.4393 51.6399 57.6946 52.2745 57.7464C53.091 57.8129 53.9123 57.7068 54.6852 57.4352C55.458 57.1635 56.165 56.7323 56.7603 56.1696C57.9349 55.0173 59.3691 54.1641 60.9423 53.6819C61.0914 53.6262 61.2536 53.6152 61.4089 53.6504C61.5642 53.6856 61.7059 53.7654 61.8165 53.88L75.9274 66.8477C76.1684 67.0285 76.3684 67.2583 76.5143 67.5218C76.6602 67.7854 76.7488 68.0768 76.7742 68.377C76.7996 68.6772 76.7613 68.9793 76.6617 69.2636C76.5621 69.548 76.4036 69.808 76.1965 70.0268C75.9893 70.2455 75.7383 70.418 75.4598 70.533C75.1814 70.6479 74.8817 70.7027 74.5806 70.6937C74.2795 70.6847 73.9837 70.6121 73.7126 70.4808C73.4414 70.3495 73.2011 70.1623 73.0074 69.9316C70.6711 67.6653 68.335 65.3952 65.9991 63.1213C65.8894 63.0331 65.7842 62.9395 65.6836 62.8406C65.4029 62.5367 65.0642 62.3032 64.7158 62.689C64.3674 63.0748 64.6223 63.3432 64.9145 63.6116L67.5778 66.2045L71.0823 69.6238C71.329 69.8203 71.531 70.067 71.6749 70.3477C71.8188 70.6283 71.9012 70.9364 71.9166 71.2514C71.9321 71.5665 71.8802 71.8811 71.7645 72.1745C71.6488 72.4679 71.4718 72.7332 71.2455 72.9529C71.0162 73.1666 70.7462 73.3319 70.4516 73.4391C70.157 73.5463 69.8439 73.5931 69.5309 73.5767C69.2178 73.5603 68.9113 73.4811 68.6295 73.3438C68.3477 73.2065 68.0964 73.0138 67.8907 72.7774L61.9332 66.598C61.8331 66.4804 61.7238 66.371 61.6061 66.2709C61.5096 66.1758 61.3795 66.1224 61.2439 66.1224C61.1083 66.1224 60.9782 66.1758 60.8816 66.2709C60.8296 66.3126 60.7867 66.3644 60.7554 66.4233C60.7241 66.4821 60.7051 66.5467 60.6996 66.6131C60.6941 66.6796 60.7022 66.7464 60.7234 66.8096C60.7446 66.8728 60.7785 66.931 60.8229 66.9806C60.9281 67.1206 61.0565 67.2387 61.1732 67.3677C62.7732 69.0264 64.3623 70.6967 65.9739 72.3554C66.1852 72.5519 66.3552 72.7885 66.4741 73.0514C66.5929 73.3143 66.6583 73.5982 66.6662 73.8866C66.6742 74.175 66.6247 74.4621 66.5205 74.7311C66.4164 75.0002 66.2597 75.2458 66.0596 75.4537C65.8595 75.6615 65.62 75.8274 65.3551 75.9417C65.0902 76.056 64.8052 76.1165 64.5167 76.1194C64.2282 76.1224 63.942 76.0679 63.6748 75.9591C63.4076 75.8503 63.1647 75.6894 62.9603 75.4858C61.0797 73.6284 59.2107 71.7361 57.3416 69.8554C57.2384 69.7444 57.1292 69.6391 57.0145 69.54C56.9104 69.4522 56.7759 69.4091 56.6402 69.4201C56.5045 69.4311 56.3786 69.4953 56.29 69.5987C56.2405 69.6436 56.2009 69.6983 56.1737 69.7594C56.1466 69.8205 56.1326 69.8867 56.1326 69.9535C56.1326 70.0204 56.1466 70.0865 56.1737 70.1476C56.2009 70.2087 56.2405 70.2635 56.29 70.3084C56.4655 70.5187 56.6636 70.6954 56.8507 70.8806C58.2526 72.2825 59.6778 73.6722 61.0558 75.0974C61.2972 75.3111 61.4758 75.5866 61.5725 75.8942C61.6692 76.2017 61.6803 76.5298 61.6046 76.8433C61.5289 77.1567 61.3694 77.4436 61.143 77.6731C60.9166 77.9027 60.632 78.0663 60.3197 78.1464C60.0134 78.2183 59.6944 78.2155 59.3894 78.1382C59.0845 78.061 58.8026 77.9116 58.5674 77.7025C56.6595 76.3008 54.7827 74.86 52.9371 73.38C48.3077 69.7392 43.9763 65.7347 39.9842 61.4045C39.876 61.3068 39.8009 61.1778 39.7694 61.0355C39.738 60.8931 39.7517 60.7445 39.8087 60.6103C41.164 56.1935 42.5074 51.7813 43.8391 47.3735C43.9326 47.0696 44.0378 46.9413 44.3765 46.9529H53.5345L53.8384 46.9767Z" fill="#1D9BF0"/>
    <path d="M61.3846 44.3364C62.0279 44.3674 62.6609 44.5098 63.2556 44.7571L74.3478 49.1609C74.4707 49.2044 74.582 49.2754 74.6731 49.3686C74.7643 49.4617 74.8329 49.5746 74.8736 49.6983C76.548 54.3005 78.2302 58.8951 79.9201 63.4822C79.9903 63.6144 80.0179 63.765 79.9991 63.9134C79.9802 64.0619 79.9159 64.2008 79.8149 64.3113C79.2204 65.1899 78.3618 65.8567 77.3633 66.2151C77.2517 66.2586 77.1295 66.2674 77.0128 66.2403C76.8961 66.2133 76.7902 66.1517 76.7091 66.0635C72.0368 61.7409 67.2826 57.4429 62.5981 53.0861C62.3436 52.8122 62.0133 52.6203 61.6492 52.535C61.2851 52.4498 60.9039 52.475 60.5543 52.6074C58.8007 53.1792 57.2021 54.1465 55.882 55.4345C55.4214 55.8775 54.8679 56.2122 54.2617 56.4143C53.6554 56.6164 53.0117 56.6808 52.3775 56.6029C52.1053 56.5731 51.8422 56.4878 51.6044 56.3523C51.3665 56.2167 51.159 56.0338 50.9948 55.8148C50.8305 55.5958 50.713 55.3454 50.6494 55.0791C50.5858 54.8128 50.5776 54.5363 50.6252 54.2667C50.6936 53.5649 50.9043 52.8844 51.2446 52.2667C52.9218 49.0179 55.6222 46.4116 58.9285 44.8506C59.7006 44.5091 60.5358 44.3333 61.3801 44.3345L61.3846 44.3364Z" fill="#1D9BF0"/>
    <path d="M87.0235 66.6475H83.2403C82.4229 66.6475 82.0719 65.9817 81.7564 65.2572C80.4627 61.6907 79.1579 58.1327 77.8422 54.583C77.1532 52.6907 76.5222 50.7869 75.7513 48.9294C75.6039 48.6664 75.5199 48.3725 75.506 48.0713C75.492 47.7701 75.5485 47.4698 75.671 47.1942C75.7934 46.9186 75.9784 46.6754 76.2113 46.4839C76.4442 46.2923 76.7186 46.1577 77.0126 46.0907C80.2157 44.9249 83.6187 44.408 87.0235 44.5701V66.6475Z" fill="#1D9BF0"/>
    <path d="M32.9756 41.8139C36.1934 41.7036 39.3928 42.3442 42.3201 43.6849C42.5304 43.7809 42.7189 43.9186 42.8743 44.0897C43.0297 44.2608 43.1487 44.4616 43.2241 44.6801C43.2995 44.8986 43.3296 45.1302 43.3127 45.3607C43.2959 45.5912 43.2323 45.8159 43.1259 46.021L38.8162 60.3049C38.5711 61.0759 38.3259 61.8585 38.0917 62.641C38.0213 63.0367 37.8096 63.3934 37.4959 63.6447C37.1823 63.8961 36.7881 64.025 36.3866 64.0075H32.9756V41.8139Z" fill="#1D9BF0"/>
    <rect x="1" y="1" width="118" height="118" rx="59" stroke="url(#paint1_linear_1236_4091)" stroke-opacity="0.4" stroke-width="2"/>
    <defs>
        <linearGradient id="paint0_linear_1236_4091" x1="111.5" y1="17.5" x2="-27" y2="161.5" gradientUnits="userSpaceOnUse">
            <stop stop-color="#1D9BF0"/>
            <stop offset="1" stop-color="#345CF0"/>
        </linearGradient>
        <linearGradient id="paint1_linear_1236_4091" x1="111.5" y1="17.5" x2="-27" y2="161.5" gradientUnits="userSpaceOnUse">
            <stop stop-color="#1D9BF0"/>
            <stop offset="1" stop-color="#345CF0"/>
        </linearGradient>
    </defs>
</svg>
