<svg width="689" height="38" viewBox="0 0 689 38" fill="none" xmlns="http://www.w3.org/2000/svg">
<path d="M36.008 2.04813H45.696L38.08 38.0001H26.824L22.848 16.5521L18.872 38.0001H7.616L0 2.04813H10.192L13.216 26.2401L18.032 2.04813H27.608L32.424 26.2401L36.008 2.04813Z" fill="white"/>
<path d="M62.9405 10.0561H63.9485C68.9138 10.0561 71.3965 12.3708 71.3965 17.0001V38.0001H61.8765V18.2881C61.8765 17.4668 61.4098 17.0561 60.4765 17.0561H59.5245C58.5165 17.0561 58.0125 17.6161 58.0125 18.7361V38.0001H48.4925V0.536133H58.0125V13.0801C58.7218 11.0641 60.3645 10.0561 62.9405 10.0561Z" fill="white"/>
<path d="M88.6095 10.0561H97.9615V38.0001H88.4415V34.9761C87.7322 36.9921 86.0895 38.0001 83.5135 38.0001H82.5055C77.5402 38.0001 75.0575 35.6855 75.0575 31.0561V17.0001C75.0575 12.3708 77.5402 10.0561 82.5055 10.0561H83.5135C86.3882 10.0561 88.0868 11.2508 88.6095 13.6401V10.0561ZM85.9775 31.0001H86.9295C87.9375 31.0001 88.4415 30.4401 88.4415 29.3201V18.7361C88.4415 17.6161 87.9375 17.0561 86.9295 17.0561H85.9775C85.0442 17.0561 84.5775 17.4668 84.5775 18.2881V29.7681C84.5775 30.5895 85.0442 31.0001 85.9775 31.0001Z" fill="white"/>
<path d="M116.582 17.0561H113.054V29.7681C113.054 30.5895 113.521 31.0001 114.454 31.0001H116.526V38.0001H111.766C106.278 38.0001 103.534 35.6855 103.534 31.0561V17.0561H100.454V10.0561H103.534V4.56813H113.054V10.0561H116.582V17.0561Z" fill="white"/>
<path d="M130.41 7.25613V0.536133H140.266V7.25613H130.41ZM140.098 38.0001H130.578V10.0561H140.098V38.0001Z" fill="white"/>
<path d="M156.618 30.6081V28.3681C156.618 27.5468 156.152 27.1361 155.218 27.1361H151.802C146.426 27.1361 143.738 24.8401 143.738 20.2481V17.0001C143.738 12.3708 146.482 10.0561 151.97 10.0561H157.178C162.666 10.0561 165.41 12.3708 165.41 17.0001V19.3521H156.338V17.4481C156.338 16.6268 155.872 16.2161 154.938 16.2161H154.378C153.445 16.2161 152.978 16.6268 152.978 17.4481V19.9121C152.978 20.7335 153.445 21.1441 154.378 21.1441H157.794C160.669 21.1441 162.722 21.7415 163.954 22.9361C165.224 24.0935 165.858 25.7735 165.858 27.9761V31.0561C165.858 35.6855 163.114 38.0001 157.626 38.0001H152.138C146.65 38.0001 143.906 35.6855 143.906 31.0561V28.7601H153.146V30.6081C153.146 31.4295 153.613 31.8401 154.546 31.8401H155.218C156.152 31.8401 156.618 31.4295 156.618 30.6081Z" fill="white"/>
<path d="M194.895 17.0561H191.367V29.7681C191.367 30.5895 191.834 31.0001 192.767 31.0001H194.839V38.0001H190.079C184.591 38.0001 181.847 35.6855 181.847 31.0561V17.0561H178.767V10.0561H181.847V4.56813H191.367V10.0561H194.895V17.0561Z" fill="white"/>
<path d="M212.128 10.0561H213.136C218.101 10.0561 220.584 12.3708 220.584 17.0001V38.0001H211.064V18.2881C211.064 17.4668 210.597 17.0561 209.664 17.0561H208.712C207.704 17.0561 207.2 17.6161 207.2 18.7361V38.0001H197.68V0.536133H207.2V13.0801C207.909 11.0641 209.552 10.0561 212.128 10.0561Z" fill="white"/>
<path d="M232.477 10.0561H239.309C244.797 10.0561 247.541 12.3708 247.541 17.0001V26.5201H233.261V30.2161C233.261 31.0375 233.728 31.4481 234.661 31.4481H237.125C238.058 31.4481 238.525 31.0001 238.525 30.1041V28.5361H247.541V31.0561C247.541 35.6855 244.797 38.0001 239.309 38.0001H232.477C226.989 38.0001 224.245 35.6855 224.245 31.0561V17.0001C224.245 12.3708 226.989 10.0561 232.477 10.0561ZM233.261 21.3681H238.525V17.8401C238.525 17.0188 238.058 16.6081 237.125 16.6081H234.661C233.728 16.6081 233.261 17.0188 233.261 17.8401V21.3681Z" fill="white"/>
<path d="M290.207 10.0561H291.215C296.181 10.0561 298.663 12.3708 298.663 17.0001V38.0001H289.143V18.2881C289.143 17.4668 288.677 17.0561 287.743 17.0561H286.791C285.783 17.0561 285.279 17.6161 285.279 18.7361V38.0001H275.759V18.2881C275.759 17.4668 275.293 17.0561 274.359 17.0561H273.407C272.399 17.0561 271.895 17.6161 271.895 18.7361V38.0001H262.375V10.0561H271.727V13.6401C272.25 11.2508 273.949 10.0561 276.823 10.0561H277.831C281.303 10.0561 283.581 11.2321 284.663 13.5841C284.962 12.5015 285.615 11.6428 286.623 11.0081C287.631 10.3735 288.826 10.0561 290.207 10.0561Z" fill="white"/>
<path d="M302.676 7.25613V0.536133H312.532V7.25613H302.676ZM312.364 38.0001H302.844V10.0561H312.364V38.0001Z" fill="white"/>
<path d="M328.884 30.6081V28.3681C328.884 27.5468 328.417 27.1361 327.484 27.1361H324.068C318.692 27.1361 316.004 24.8401 316.004 20.2481V17.0001C316.004 12.3708 318.748 10.0561 324.236 10.0561H329.444C334.932 10.0561 337.676 12.3708 337.676 17.0001V19.3521H328.604V17.4481C328.604 16.6268 328.137 16.2161 327.204 16.2161H326.644C325.711 16.2161 325.244 16.6268 325.244 17.4481V19.9121C325.244 20.7335 325.711 21.1441 326.644 21.1441H330.06C332.935 21.1441 334.988 21.7415 336.22 22.9361C337.489 24.0935 338.124 25.7735 338.124 27.9761V31.0561C338.124 35.6855 335.38 38.0001 329.892 38.0001H324.404C318.916 38.0001 316.172 35.6855 316.172 31.0561V28.7601H325.412V30.6081C325.412 31.4295 325.879 31.8401 326.812 31.8401H327.484C328.417 31.8401 328.884 31.4295 328.884 30.6081Z" fill="white"/>
<path d="M353.822 30.6081V28.3681C353.822 27.5468 353.355 27.1361 352.422 27.1361H349.006C343.63 27.1361 340.942 24.8401 340.942 20.2481V17.0001C340.942 12.3708 343.686 10.0561 349.174 10.0561H354.382C359.87 10.0561 362.614 12.3708 362.614 17.0001V19.3521H353.542V17.4481C353.542 16.6268 353.075 16.2161 352.142 16.2161H351.582C350.648 16.2161 350.182 16.6268 350.182 17.4481V19.9121C350.182 20.7335 350.648 21.1441 351.582 21.1441H354.998C357.872 21.1441 359.926 21.7415 361.158 22.9361C362.427 24.0935 363.062 25.7735 363.062 27.9761V31.0561C363.062 35.6855 360.318 38.0001 354.83 38.0001H349.342C343.854 38.0001 341.11 35.6855 341.11 31.0561V28.7601H350.35V30.6081C350.35 31.4295 350.816 31.8401 351.75 31.8401H352.422C353.355 31.8401 353.822 31.4295 353.822 30.6081Z" fill="white"/>
<path d="M366.551 7.25613V0.536133H376.407V7.25613H366.551ZM376.239 38.0001H366.719V10.0561H376.239V38.0001Z" fill="white"/>
<path d="M388.391 10.0561H395.503C398.34 10.0561 400.375 10.6535 401.607 11.8481C402.839 13.0428 403.455 14.7601 403.455 17.0001V31.0561C403.455 33.2961 402.839 35.0135 401.607 36.2081C400.375 37.4028 398.34 38.0001 395.503 38.0001H388.391C385.554 38.0001 383.519 37.4028 382.287 36.2081C381.055 35.0135 380.439 33.2961 380.439 31.0561V17.0001C380.439 14.7601 381.055 13.0428 382.287 11.8481C383.519 10.6535 385.554 10.0561 388.391 10.0561ZM394.103 30.1601V17.8961C394.103 17.0748 393.636 16.6641 392.703 16.6641H391.191C390.258 16.6641 389.791 17.0748 389.791 17.8961V30.1601C389.791 30.9815 390.258 31.3921 391.191 31.3921H392.703C393.636 31.3921 394.103 30.9815 394.103 30.1601Z" fill="white"/>
<path d="M422.128 10.0561H423.136C428.101 10.0561 430.584 12.3708 430.584 17.0001V38.0001H421.064V18.2881C421.064 17.4668 420.597 17.0561 419.664 17.0561H418.712C417.704 17.0561 417.2 17.6161 417.2 18.7361V38.0001H407.68V10.0561H417.032V13.6401C417.555 11.2508 419.253 10.0561 422.128 10.0561Z" fill="white"/>
<path d="M453.688 10.0561H460.8C463.637 10.0561 465.672 10.6535 466.904 11.8481C468.136 13.0428 468.752 14.7601 468.752 17.0001V31.0561C468.752 33.2961 468.136 35.0135 466.904 36.2081C465.672 37.4028 463.637 38.0001 460.8 38.0001H453.688C450.851 38.0001 448.816 37.4028 447.584 36.2081C446.352 35.0135 445.736 33.2961 445.736 31.0561V17.0001C445.736 14.7601 446.352 13.0428 447.584 11.8481C448.816 10.6535 450.851 10.0561 453.688 10.0561ZM459.4 30.1601V17.8961C459.4 17.0748 458.933 16.6641 458 16.6641H456.488C455.555 16.6641 455.088 17.0748 455.088 17.8961V30.1601C455.088 30.9815 455.555 31.3921 456.488 31.3921H458C458.933 31.3921 459.4 30.9815 459.4 30.1601Z" fill="white"/>
<path d="M488.041 7.25613H485.073C484.14 7.25613 483.673 7.6668 483.673 8.48813V10.0561H488.041V17.0561H483.673V38.0001H474.153V17.0561H471.297V10.0561H474.153V7.48013C474.153 2.8508 476.897 0.536133 482.385 0.536133H488.041V7.25613Z" fill="white"/>
<path d="M536.125 2.04813H545.813L538.197 38.0001H526.941L522.965 16.5521L518.989 38.0001H507.733L500.117 2.04813H510.309L513.333 26.2401L518.149 2.04813H527.725L532.541 26.2401L536.125 2.04813Z" fill="white"/>
<path d="M556.282 10.0561H563.394C566.231 10.0561 568.266 10.6535 569.498 11.8481C570.73 13.0428 571.346 14.7601 571.346 17.0001V31.0561C571.346 33.2961 570.73 35.0135 569.498 36.2081C568.266 37.4028 566.231 38.0001 563.394 38.0001H556.282C553.444 38.0001 551.41 37.4028 550.178 36.2081C548.946 35.0135 548.33 33.2961 548.33 31.0561V17.0001C548.33 14.7601 548.946 13.0428 550.178 11.8481C551.41 10.6535 553.444 10.0561 556.282 10.0561ZM561.994 30.1601V17.8961C561.994 17.0748 561.527 16.6641 560.594 16.6641H559.082C558.148 16.6641 557.682 17.0748 557.682 17.8961V30.1601C557.682 30.9815 558.148 31.3921 559.082 31.3921H560.594C561.527 31.3921 561.994 30.9815 561.994 30.1601Z" fill="white"/>
<path d="M583.243 10.0561H590.355C593.192 10.0561 595.227 10.6535 596.459 11.8481C597.691 13.0428 598.307 14.7601 598.307 17.0001V31.0561C598.307 33.2961 597.691 35.0135 596.459 36.2081C595.227 37.4028 593.192 38.0001 590.355 38.0001H583.243C580.405 38.0001 578.371 37.4028 577.139 36.2081C575.907 35.0135 575.291 33.2961 575.291 31.0561V17.0001C575.291 14.7601 575.907 13.0428 577.139 11.8481C578.371 10.6535 580.405 10.0561 583.243 10.0561ZM588.955 30.1601V17.8961C588.955 17.0748 588.488 16.6641 587.555 16.6641H586.043C585.109 16.6641 584.643 17.0748 584.643 17.8961V30.1601C584.643 30.9815 585.109 31.3921 586.043 31.3921H587.555C588.488 31.3921 588.955 30.9815 588.955 30.1601Z" fill="white"/>
<path d="M617.596 7.25613H614.628C613.694 7.25613 613.228 7.6668 613.228 8.48813V10.0561H617.596V17.0561H613.228V38.0001H603.708V17.0561H600.852V10.0561H603.708V7.48013C603.708 2.8508 606.452 0.536133 611.94 0.536133H617.596V7.25613Z" fill="white"/>
<path d="M627.813 10.0561H634.645C640.133 10.0561 642.877 12.3708 642.877 17.0001V26.5201H628.597V30.2161C628.597 31.0375 629.064 31.4481 629.997 31.4481H632.461C633.394 31.4481 633.861 31.0001 633.861 30.1041V28.5361H642.877V31.0561C642.877 35.6855 640.133 38.0001 634.645 38.0001H627.813C622.325 38.0001 619.581 35.6855 619.581 31.0561V17.0001C619.581 12.3708 622.325 10.0561 627.813 10.0561ZM628.597 21.3681H633.861V17.8401C633.861 17.0188 633.394 16.6081 632.461 16.6081H629.997C629.064 16.6081 628.597 17.0188 628.597 17.8401V21.3681Z" fill="white"/>
<path d="M661.9 9.77613H662.74V18.0641H659.548C657.196 18.0641 656.02 19.3335 656.02 21.8721V38.0001H646.5V10.0561H655.852V14.3681C656.151 12.9495 656.823 11.8295 657.868 11.0081C658.914 10.1868 660.258 9.77613 661.9 9.77613Z" fill="white"/>
<path d="M672.37 2.04813H679.93C685.418 2.04813 688.162 4.3628 688.162 8.99213V14.5921C688.162 19.1841 685.493 21.4988 680.154 21.5361L679.818 24.9521H671.642L670.802 16.3841H676.962C677.895 16.3841 678.362 15.9735 678.362 15.1521V9.72013C678.362 8.8988 677.895 8.48813 676.962 8.48813H675.338C674.405 8.48813 673.938 8.8988 673.938 9.72013V13.5281H664.138V8.99213C664.138 4.3628 666.882 2.04813 672.37 2.04813ZM670.802 38.0001V28.8161H680.434V38.0001H670.802Z" fill="white"/>
</svg>
