<svg width="21" height="19" viewBox="0 0 21 19" fill="none" xmlns="http://www.w3.org/2000/svg">
    <rect x="1.50006" y="3.71387" width="18.4898" height="13.7863" rx="1" stroke="#ffffff" stroke-width="1.3"/>
    <path fill-rule="evenodd" clip-rule="evenodd" d="M16.4778 8.95581H19.3931C19.6035 8.95581 19.8048 8.99518 19.9899 9.06695V8.02325C19.7981 7.97913 19.5983 7.95581 19.3931 7.95581H16.4778C15.0136 7.95581 13.8266 9.1428 13.8266 10.607C13.8266 12.0712 15.0136 13.2582 16.4778 13.2582H19.3931C19.5983 13.2582 19.7981 13.2349 19.9899 13.1908V12.1471C19.8048 12.2189 19.6035 12.2582 19.3931 12.2582H16.4778C15.5659 12.2582 14.8266 11.519 14.8266 10.607C14.8266 9.69508 15.5659 8.95581 16.4778 8.95581Z" fill="#ffffff"/>
    <ellipse cx="16.3946" cy="10.607" rx="0.513606" ry="0.530242" fill="#ffffff"/>
    <path fill-rule="evenodd" clip-rule="evenodd" d="M2.36425 2.56615C1.46826 2.7323 0.868538 3.59479 1.02474 4.49257L1.50002 7.22426V3.71385H3.30459L16.2748 1.30866C16.4648 1.27341 16.6458 1.39922 16.6789 1.58966L17.0485 3.71385H18.3679L17.9571 1.35263C17.8009 0.454845 16.9479 -0.138256 16.0519 0.0278973L2.36425 2.56615Z" fill="#ffffff"/>
</svg>
