<svg width="24" height="24" viewBox="0 0 24 24" fill="none" xmlns="http://www.w3.org/2000/svg">
    <path d="M16.4999 13C17.0521 13 17.4999 12.5523 17.4999 12C17.4999 11.4477 17.0521 11 16.4999 11V13ZM7.50012 11C6.94784 11 6.50012 11.4477 6.50012 12C6.50012 12.5523 6.94784 13 7.50012 13L7.50012 11ZM16.4999 11L7.50012 11L7.50012 13L16.4999 13V11Z" fill="#1D9BF0"/>
    <path d="M10.543 16.4571C10.9335 16.8476 11.5667 16.8476 11.9572 16.4571C12.3478 16.0666 12.3478 15.4334 11.9572 15.0429L10.543 16.4571ZM7.50012 12L6.79302 11.2929C6.40249 11.6834 6.40249 12.3166 6.79302 12.7071L7.50012 12ZM11.9572 8.95711C12.3478 8.56658 12.3478 7.93342 11.9572 7.54289C11.5667 7.15237 10.9335 7.15237 10.543 7.54289L11.9572 8.95711ZM11.9572 15.0429L8.20723 11.2929L6.79302 12.7071L10.543 16.4571L11.9572 15.0429ZM8.20723 12.7071L11.9572 8.95711L10.543 7.54289L6.79302 11.2929L8.20723 12.7071Z" fill="#1D9BF0"/>
    <rect x="1" y="1" width="22" height="22" rx="11" stroke="#1D9BF0" stroke-width="2"/>
</svg>
