<svg width="20" height="20" viewBox="0 0 20 20" fill="none" xmlns="http://www.w3.org/2000/svg">
    <path fill-rule="evenodd" clip-rule="evenodd" d="M10.6371 0.532506C10.2864 0.17699 9.71274 0.17699 9.36209 0.532505L0.905206 9.1068C0.347125 9.67263 0.747959 10.631 1.5427 10.631H2.68725V18.8389C2.68725 19.3334 3.08814 19.7343 3.58265 19.7343H16.4167C16.9112 19.7343 17.3121 19.3334 17.3121 18.8389V10.631H18.4565C19.2512 10.631 19.652 9.67263 19.094 9.1068L10.6371 0.532506ZM6.1687 12.0512C6.1687 9.9355 7.88381 8.22039 9.99951 8.22039C12.1152 8.22039 13.8303 9.9355 13.8303 12.0512V16.8651C13.8303 16.9787 13.7382 17.0709 13.6245 17.0709H6.37452C6.26085 17.0709 6.1687 16.9787 6.1687 16.8651V12.0512ZM9.5458 4.72543C9.79836 4.68111 9.94872 4.33525 9.88163 3.95292C9.81454 3.57059 9.55541 3.29658 9.30284 3.3409C9.05028 3.38521 8.89992 3.73108 8.96701 4.11341C9.0341 4.49574 9.29323 4.76975 9.5458 4.72543ZM10.4246 4.67193C10.1645 4.62628 10.0052 4.29564 10.0687 3.93342C10.1323 3.57121 10.3947 3.31457 10.6548 3.36022C10.9149 3.40587 11.0743 3.73651 11.0107 4.09872C10.9472 4.46094 10.6848 4.71758 10.4246 4.67193ZM9.12701 4.88846C9.27199 5.21581 9.19944 5.56536 8.96499 5.66919C8.73053 5.77303 8.42294 5.59183 8.27796 5.26448C8.13298 4.93712 8.20552 4.58758 8.43998 4.48374C8.67444 4.37991 8.98203 4.5611 9.12701 4.88846ZM10.9746 5.56957C10.7492 5.44732 10.7048 5.09309 10.8755 4.77838C11.0462 4.46366 11.3673 4.30764 11.5927 4.42989C11.8181 4.55214 11.8624 4.90637 11.6918 5.22108C11.5211 5.53579 11.2 5.69182 10.9746 5.56957ZM8.8859 6.24217C9.21827 5.32349 9.7383 5.14503 9.97883 5.14081C10.3973 5.1012 10.669 5.39477 10.8703 5.69567C11.1827 6.16269 11.2382 6.40671 11.2382 6.50101C11.2649 6.88934 10.7184 6.93623 10.5654 6.8034C10.2187 6.55126 9.83535 6.68947 9.76362 6.719C9.52731 6.83716 9.3121 6.8878 9.17285 6.88358C8.7738 6.84171 8.86059 6.36876 8.8859 6.24217Z" fill="#999999"/>
</svg>
