<svg width="20" height="20" viewBox="0 0 20 20" fill="none" xmlns="http://www.w3.org/2000/svg">
    <path fill-rule="evenodd" clip-rule="evenodd" d="M10.6374 0.532506C10.2868 0.17699 9.7131 0.17699 9.36246 0.532505L0.905572 9.1068C0.347491 9.67263 0.748325 10.631 1.54307 10.631H2.68753V18.8388C2.68753 19.3333 3.08841 19.7342 3.58293 19.7342H16.417C16.9115 19.7342 17.3124 19.3333 17.3124 18.8388V10.631H18.4568C19.2516 10.631 19.6524 9.67263 19.0943 9.1068L10.6374 0.532506ZM6.16917 12.0512C6.16917 9.93547 7.88428 8.22036 9.99998 8.22036C12.1157 8.22036 13.8308 9.93547 13.8308 12.0512V16.865C13.8308 16.9787 13.7386 17.0709 13.625 17.0709H6.37499C6.26132 17.0709 6.16917 16.9787 6.16917 16.865V12.0512ZM9.54614 4.72532C9.79871 4.681 9.94906 4.33514 9.88197 3.95281C9.81488 3.57048 9.55575 3.29647 9.30319 3.34078C9.05063 3.3851 8.90027 3.73097 8.96736 4.1133C9.03445 4.49563 9.29358 4.76964 9.54614 4.72532ZM10.4254 4.67178C10.1653 4.62614 10.0059 4.2955 10.0695 3.93328C10.133 3.57106 10.3954 3.31443 10.6556 3.36007C10.9157 3.40572 11.075 3.73636 11.0115 4.09858C10.9479 4.4608 10.6855 4.71743 10.4254 4.67178ZM9.12734 4.88832C9.27231 5.21567 9.19977 5.56522 8.96531 5.66905C8.73085 5.77289 8.42326 5.59169 8.27829 5.26434C8.13331 4.93699 8.20585 4.58744 8.44031 4.4836C8.67477 4.37977 8.98236 4.56097 9.12734 4.88832ZM10.9753 5.56958C10.7499 5.44733 10.7055 5.0931 10.8762 4.77839C11.0469 4.46367 11.368 4.30765 11.5934 4.4299C11.8188 4.55215 11.8631 4.90638 11.6925 5.22109C11.5218 5.5358 11.2007 5.69183 10.9753 5.56958ZM8.88708 6.24206C9.21945 5.32338 9.73948 5.14492 9.98001 5.1407C10.3984 5.1011 10.6702 5.39466 10.8715 5.69556C11.1839 6.16259 11.2393 6.4066 11.2393 6.5009C11.2661 6.88923 10.7196 6.93612 10.5666 6.80329C10.2198 6.55116 9.83653 6.68936 9.7648 6.7189C9.52849 6.83705 9.31328 6.88769 9.17403 6.88347C8.77498 6.8416 8.86177 6.36866 8.88708 6.24206Z" fill="white"/>
</svg>
