<svg width="42" height="41" viewBox="0 0 42 41" fill="none" xmlns="http://www.w3.org/2000/svg">
    <path d="M37.6797 20.5C37.6797 29.7119 30.2119 37.1797 21 37.1797C11.7881 37.1797 4.32031 29.7119 4.32031 20.5C4.32031 11.2881 11.7881 3.82031 21 3.82031C30.2119 3.82031 37.6797 11.2881 37.6797 20.5ZM10.1582 20.5C10.1582 26.4878 15.0122 31.3418 21 31.3418C26.9878 31.3418 31.8418 26.4878 31.8418 20.5C31.8418 14.5122 26.9878 9.6582 21 9.6582C15.0122 9.6582 10.1582 14.5122 10.1582 20.5Z" fill="#1D9BF0" fill-opacity="0.1"/>
    <path d="M21 3.82031C23.1904 3.82031 25.3594 4.25175 27.383 5.08998C29.4067 5.92821 31.2455 7.15683 32.7943 8.70568C34.3432 10.2545 35.5718 12.0933 36.41 14.117C37.2483 16.1406 37.6797 18.3096 37.6797 20.5L31.8418 20.5C31.8418 19.0762 31.5614 17.6664 31.0165 16.351C30.4717 15.0356 29.6731 13.8404 28.6663 12.8337C27.6596 11.8269 26.4644 11.0283 25.149 10.4835C23.8336 9.93863 22.4238 9.6582 21 9.6582L21 3.82031Z" fill="#1D9BF0"/>
</svg>
