<svg width="16" height="16" viewBox="0 0 16 16" fill="none" xmlns="http://www.w3.org/2000/svg">
    <path d="M8 0C12.4183 0 16 3.58172 16 8C16 12.4183 12.4183 16 8 16H0.761905C0.341116 16 0 15.6589 0 15.2381V8C0 3.58172 3.58172 0 8 0ZM8 1.52381C4.4233 1.52381 1.52381 4.4233 1.52381 8V14.4762H8C11.5767 14.4762 14.4762 11.5767 14.4762 8C14.4762 4.4233 11.5767 1.52381 8 1.52381ZM8.38095 8.7619C8.59135 8.7619 8.7619 8.93246 8.7619 9.14286V9.90476C8.7619 10.1152 8.59135 10.2857 8.38095 10.2857H4.57143C4.36103 10.2857 4.19048 10.1152 4.19048 9.90476V9.14286C4.19048 8.93246 4.36103 8.7619 4.57143 8.7619H8.38095ZM11.4286 5.71429C11.639 5.71429 11.8095 5.88484 11.8095 6.09524V6.85714C11.8095 7.06754 11.639 7.2381 11.4286 7.2381H4.57143C4.36103 7.2381 4.19048 7.06754 4.19048 6.85714V6.09524C4.19048 5.88484 4.36103 5.71429 4.57143 5.71429H11.4286Z" fill="white" fill-opacity="0.6"/>
</svg>
