<svg width="24" height="25" viewBox="0 0 24 25" fill="none" xmlns="http://www.w3.org/2000/svg">
    <path d="M6.74899 5.82562L4.94511 4.03176L3.53207 5.44481L5.32593 7.23867L6.74899 5.82562ZM3.98304 11.4978H0.976562V13.5022H3.98304V11.4978ZM13.0025 1.52637H10.9981V4.48273H13.0025V1.52637ZM20.4685 5.44481L19.0555 4.03176L17.2616 5.82562L18.6747 7.23867L20.4685 5.44481ZM17.2516 19.1744L19.0455 20.9783L20.4585 19.5652L18.6546 17.7714L17.2516 19.1744ZM20.0176 11.4978V13.5022H23.024V11.4978H20.0176ZM12.0003 6.48705C8.68316 6.48705 5.98735 9.18285 5.98735 12.5C5.98735 15.8171 8.68316 18.5129 12.0003 18.5129C15.3174 18.5129 18.0132 15.8171 18.0132 12.5C18.0132 9.18285 15.3174 6.48705 12.0003 6.48705ZM10.9981 23.4736H13.0025V20.5173H10.9981V23.4736ZM3.53207 19.5552L4.94511 20.9682L6.73897 19.1643L5.32593 17.7513L3.53207 19.5552Z" fill="white"/>
</svg>
