<svg width="10" height="39" viewBox="0 0 10 39" fill="none" xmlns="http://www.w3.org/2000/svg">
    <path opacity="0.6" d="M5.7 2C5.7 1.6134 5.3866 1.3 5 1.3C4.6134 1.3 4.3 1.6134 4.3 2H5.7ZM5.7 25.5556C5.7 25.169 5.3866 24.8556 5 24.8556C4.6134 24.8556 4.3 25.169 4.3 25.5556H5.7ZM4.3 18.4444C4.3 18.831 4.6134 19.1444 5 19.1444C5.3866 19.1444 5.7 18.831 5.7 18.4444H4.3ZM5.7 17.5556C5.7 17.169 5.3866 16.8556 5 16.8556C4.6134 16.8556 4.3 17.169 4.3 17.5556H5.7ZM4.3 10.4444C4.3 10.831 4.6134 11.1444 5 11.1444C5.3866 11.1444 5.7 10.831 5.7 10.4444H4.3ZM5.7 9.55556C5.7 9.16896 5.3866 8.85555 5 8.85555C4.6134 8.85555 4.3 9.16896 4.3 9.55556H5.7ZM4.3 2.44444C4.3 2.83104 4.6134 3.14444 5 3.14444C5.3866 3.14444 5.7 2.83104 5.7 2.44444H4.3ZM5.7 26V25.5556H4.3V26H5.7ZM5.7 18.4444V17.5556H4.3V18.4444H5.7ZM5.7 10.4444V9.55556H4.3V10.4444H5.7ZM5.7 2.44444V2H4.3V2.44444H5.7ZM6.4 2C6.4 1.2268 5.7732 0.6 5 0.6C4.2268 0.6 3.6 1.2268 3.6 2H6.4ZM6.4 25.5556C6.4 24.7824 5.7732 24.1556 5 24.1556C4.2268 24.1556 3.6 24.7824 3.6 25.5556H6.4ZM3.6 18.4444C3.6 19.2176 4.2268 19.8444 5 19.8444C5.7732 19.8444 6.4 19.2176 6.4 18.4444H3.6ZM6.4 17.5556C6.4 16.7824 5.7732 16.1556 5 16.1556C4.2268 16.1556 3.6 16.7824 3.6 17.5556H6.4ZM3.6 10.4444C3.6 11.2176 4.2268 11.8444 5 11.8444C5.7732 11.8444 6.4 11.2176 6.4 10.4444H3.6ZM6.4 9.55556C6.4 8.78236 5.7732 8.15556 5 8.15556C4.2268 8.15556 3.6 8.78236 3.6 9.55556H6.4ZM3.6 2.44444C3.6 3.21764 4.2268 3.84444 5 3.84444C5.7732 3.84444 6.4 3.21764 6.4 2.44444H3.6ZM6.4 26V25.5556H3.6V26H6.4ZM6.4 18.4444V17.5556H3.6V18.4444H6.4ZM6.4 10.4444V9.55556H3.6V10.4444H6.4ZM6.4 2.44444V2H3.6V2.44444H6.4Z" fill="#1D9BF0"/>
    <path d="M5.61867 37.1249C5.34375 37.601 4.65642 37.6011 4.3815 37.1249L0.773056 30.8749C0.498128 30.3987 0.841787 29.8034 1.39164 29.8034L8.60853 29.8034C9.15838 29.8034 9.50204 30.3987 9.22711 30.8749L5.61867 37.1249Z" fill="#1D9BF0" fill-opacity="0.8"/>
</svg>
