<svg width="32" height="32" viewBox="0 0 32 32" fill="none" xmlns="http://www.w3.org/2000/svg">
    <g opacity="0.7">
        <path d="M26.989 6.91418C24.9679 5.98683 22.8007 5.3036 20.5346 4.91229C20.4934 4.90473 20.4521 4.92361 20.4309 4.96136C20.1522 5.4571 19.8434 6.10384 19.6272 6.61218C17.1899 6.24729 14.7652 6.24729 12.3779 6.61218C12.1617 6.09254 11.8417 5.4571 11.5617 4.96136C11.5405 4.92487 11.4992 4.90599 11.458 4.91229C9.19319 5.30235 7.02591 5.98558 5.00359 6.91418C4.98609 6.92173 4.97108 6.93432 4.96112 6.95067C0.850242 13.0922 -0.2759 19.0828 0.276548 24.9992C0.279047 25.0281 0.295296 25.0558 0.317794 25.0734C3.03003 27.0652 5.6573 28.2744 8.23578 29.0759C8.27705 29.0885 8.32077 29.0734 8.34703 29.0394C8.95697 28.2065 9.50068 27.3282 9.96686 26.4046C9.99437 26.3505 9.96811 26.2864 9.91188 26.265C9.04947 25.9378 8.22828 25.539 7.43835 25.086C7.37587 25.0495 7.37087 24.9601 7.42835 24.9174C7.59458 24.7928 7.76085 24.6632 7.91958 24.5323C7.9483 24.5084 7.98831 24.5034 8.02208 24.5185C13.2116 26.8878 18.8298 26.8878 23.958 24.5185C23.9918 24.5021 24.0318 24.5072 24.0618 24.5311C24.2205 24.6619 24.3868 24.7928 24.5542 24.9174C24.6117 24.9601 24.608 25.0495 24.5455 25.086C23.7556 25.5478 22.9344 25.9378 22.0707 26.2637C22.0145 26.2851 21.9895 26.3505 22.017 26.4046C22.4932 27.3269 23.0369 28.2052 23.6356 29.0382C23.6606 29.0734 23.7055 29.0885 23.7468 29.0759C26.3378 28.2744 28.965 27.0652 31.6773 25.0734C31.701 25.0558 31.7161 25.0294 31.7186 25.0004C32.3797 18.1605 30.6111 12.219 27.0302 6.95192C27.0215 6.93432 27.0065 6.92173 26.989 6.91418ZM10.7418 21.3967C9.17943 21.3967 7.89207 19.9624 7.89207 18.2008C7.89207 16.4392 9.15447 15.0048 10.7418 15.0048C12.3416 15.0048 13.6165 16.4518 13.5915 18.2008C13.5915 19.9624 12.3291 21.3967 10.7418 21.3967ZM21.2783 21.3967C19.7159 21.3967 18.4286 19.9624 18.4286 18.2008C18.4286 16.4392 19.6909 15.0048 21.2783 15.0048C22.8781 15.0048 24.153 16.4518 24.128 18.2008C24.128 19.9624 22.8781 21.3967 21.2783 21.3967Z" fill="#0F1419" fill-opacity="0.3"/>
    </g>
</svg>
