<svg width="1440" height="291" viewBox="0 0 1440 291" fill="none" xmlns="http://www.w3.org/2000/svg">
    <path d="M0 284.147C242.716 284.207 485.312 282.748 727.968 281.097C832.959 280.378 938.669 280.614 1043.65 282.128C1175.06 284.021 1306.54 282.238 1437.92 284.147" stroke="url(#paint0_linear_385_6918)" stroke-miterlimit="10"/>
    <path d="M0 276.106C68.7725 276.106 137.565 276.397 206.328 276.254C267.78 276.128 329.093 273.391 390.526 272.919C504.964 272.041 619.382 273.061 733.81 272.025C835.376 271.103 937.99 268.662 1039.49 272.387C1098.64 274.581 1157.19 275.579 1216.4 276.484C1290.29 277.614 1364.1 274.548 1437.96 276.106" stroke="url(#paint1_linear_385_6918)" stroke-miterlimit="10"/>
    <path d="M0 268.174C67.7839 268.174 135.748 268.8 203.512 268.125C267.191 267.489 330.501 263.029 394.131 261.883C508.789 259.815 622.547 265.722 737.085 264.669C837.872 263.759 937.231 256.364 1038.13 262.98C1097.1 266.847 1154.25 269.875 1213.66 270.758C1288.55 271.855 1363.08 266.518 1437.96 268.174" stroke="url(#paint2_linear_385_6918)" stroke-miterlimit="10"/>
    <path d="M0 260.396C66.5557 260.396 133.601 261.394 200.106 260.017C266.612 258.64 332.169 252.305 398.475 250.259C458.75 248.399 518.175 248.898 578.13 252.946C631.864 256.578 684.06 259.2 738.233 258.805C785.716 258.454 830.203 254.493 877.097 250.802C930.761 246.572 986.012 248.547 1039.18 253.934C1097.69 259.869 1152.89 265.546 1212.64 266.194C1288.01 267.016 1362.54 258.975 1437.96 260.396" stroke="url(#paint3_linear_385_6918)" stroke-miterlimit="10"/>
    <path d="M0 252.727C65.1177 252.727 131.224 254.071 196.232 251.921C265.693 249.628 333.977 241.323 403.288 238.207C462.799 235.497 522.708 237.355 581.286 243.726C633.582 249.332 684.14 254.34 737.594 254.109C787.094 253.895 831.881 247.011 879.933 241.444C934.475 235.124 988.449 237.522 1042.16 245.185C1099.73 253.413 1152.88 262.277 1213.04 262.513C1288.54 262.815 1362.33 251.805 1437.96 252.733" stroke="url(#paint4_linear_385_6918)" stroke-miterlimit="10"/>
    <path d="M0 245.179C63.5799 245.146 128.718 246.824 192.078 243.89C264.815 240.549 335.874 230.242 408.341 225.936C469.155 222.327 525.355 225.684 584.012 234.751C634.231 242.518 682.872 250.297 735.547 250.313C787.633 250.313 833.968 239.973 883.398 232.425C939.708 223.83 991.634 226.331 1046.66 236.715C1102.66 247.28 1154.07 259.753 1214.57 259.479C1289.96 259.106 1362.36 244.926 1437.96 245.179" stroke="url(#paint5_linear_385_6918)" stroke-miterlimit="10"/>
    <path d="M0 237.752C61.9721 237.702 126.131 239.567 187.734 235.958C263.806 231.504 337.522 219.206 413.324 213.654C474.987 209.14 528.511 213.967 586.219 226.046C633.831 236.013 680.595 246.814 732.412 247.154C787.174 247.516 836.544 233.314 887.192 223.753C945.679 212.711 995.619 215.059 1052.14 228.514C1105.96 241.328 1156.15 257.779 1216.9 256.857C1292.03 255.716 1362.52 238.278 1437.94 237.752" stroke="url(#paint6_linear_385_6918)" stroke-miterlimit="10"/>
    <path d="M0 230.445C60.3844 230.38 123.545 232.365 183.48 228.158C262.807 222.59 339.189 208.361 418.147 201.57C481.058 196.156 531.546 202.355 588.036 217.615C632.713 229.683 677.589 243.621 728.687 244.356C786.126 245.174 839.46 226.726 891.276 215.388C918.418 209.48 947.027 203.946 976.616 205.218C1005.57 206.469 1033 213.166 1058.32 220.577C1109.37 235.481 1159.1 255.996 1219.84 254.428C1294.63 252.491 1362.77 231.806 1437.97 230.462" stroke="url(#paint7_linear_385_6918)" stroke-miterlimit="10"/>
    <path d="M0.0493164 223.265C58.9658 223.183 121.098 225.218 179.395 220.523C261.748 213.907 340.517 197.841 422.401 189.876C486.749 183.611 534.322 191.066 589.284 209.47C630.955 223.424 673.954 240.478 724.592 241.636C784.507 243.002 842.425 220.215 895.23 207.319C922.891 200.561 953.398 193.436 984.294 195.005C1013.25 196.475 1040.38 204.505 1064.6 212.832C1112.88 229.442 1162.1 254.099 1223 251.899C1297.47 249.2 1362.98 225.372 1437.98 223.265" stroke="url(#paint8_linear_385_6918)" stroke-miterlimit="10"/>
    <path d="M0.0600586 216.211C57.5685 216.112 118.782 218.147 175.591 213.106C260.631 205.553 341.516 187.791 425.936 178.762C458.081 175.328 488.548 173.343 520.033 179.366C545.687 184.275 568.255 192.893 590.024 201.603C628.968 217.176 670.08 237.149 720.599 238.712C782.711 240.637 845.282 213.721 898.946 199.508C927.086 192.053 959.47 183.419 991.545 185.246C1020.63 186.892 1047.41 196.145 1070.58 205.284C1116.3 223.298 1164.93 251.811 1226.15 249.052C1300.36 245.701 1363.15 218.921 1438.02 216.184" stroke="url(#paint9_linear_385_6918)" stroke-miterlimit="10"/>
    <path d="M0.0698242 209.271C56.37 209.167 116.754 211.191 172.256 205.92C259.452 197.637 341.875 178.35 428.423 168.471C460.677 164.79 491.054 162.508 522.379 169.343C547.793 174.922 569.453 184.494 590.163 194.06C626.821 210.972 666.215 233.451 716.984 235.343C749.428 236.556 782.051 227.258 810.072 219.386C841.157 210.654 871.045 200.703 902.121 191.959C930.681 183.929 964.632 174.077 997.785 176.134C1027.08 177.95 1053.44 188.147 1075.78 197.966C1119.4 217.165 1167.12 248.903 1228.93 245.689C1303 241.849 1363.17 212.403 1438.03 209.249" stroke="url(#paint10_linear_385_6918)" stroke-miterlimit="10"/>
    <path d="M0.0800781 202.459C55.3717 202.355 115.117 204.385 169.55 199.014C258.284 190.265 341.666 169.662 429.661 159.169C461.766 155.329 492.372 152.877 523.378 160.2C548.762 166.195 569.772 176.59 589.734 186.815C624.864 204.802 662.771 229.146 714.158 231.247C747.491 232.596 781.063 222.525 809.523 214.198C841.647 204.791 872.433 194.083 904.558 184.665C933.517 176.168 968.467 165.543 1002.51 167.709C1032.12 169.596 1058.02 180.43 1079.76 190.814C1122.03 210.995 1168.28 245.009 1231.08 241.581C1305.16 237.538 1363.03 205.729 1438.04 202.481" stroke="url(#paint11_linear_385_6918)" stroke-miterlimit="10"/>
    <path d="M0.0996094 195.767C54.6123 195.679 113.988 197.747 167.622 192.421C257.105 183.534 340.717 161.851 429.391 151.072C461.056 147.232 492.232 144.731 522.799 152.103C548.392 158.274 569.113 169.229 588.705 179.887C623.276 198.724 660.064 224.044 712.53 226.085C746.601 227.412 780.264 217.237 809.123 208.531C841.926 198.658 873.282 187.402 906.075 177.517C935.404 168.675 970.504 157.879 1005.24 160.03C1035.2 161.884 1060.67 172.915 1082.14 183.743C1124.08 204.889 1168.12 239.765 1232.39 236.37C1306.66 232.448 1362.78 198.68 1438.1 195.778" stroke="url(#paint12_linear_385_6918)" stroke-miterlimit="10"/>
    <path d="M0.109863 189.185C54.4229 188.998 113.609 191.324 167.013 185.893C255.887 176.837 338.43 154.506 426.406 143.475C457.981 139.52 489.137 137.15 519.683 144.435C545.646 150.639 566.777 161.725 586.658 172.514C621.868 191.626 659.046 217.27 712.2 219.661C746.512 221.203 779.974 211.154 808.963 202.311C841.817 192.284 873.112 180.808 905.956 170.776C935.424 161.769 970.344 151.121 1005.34 153.425C1035.5 155.411 1060.82 166.464 1082.33 177.413C1124.44 198.855 1167.64 233.271 1232.42 230.073C1306.9 226.408 1362.44 191.719 1438.07 189.185" stroke="url(#paint13_linear_385_6918)" stroke-miterlimit="10"/>
    <path d="M0.119629 182.75C54.6623 182.41 113.669 185.344 167.263 179.535C254.559 170.073 335.245 147.374 421.612 135.954C453.567 131.724 483.904 129.525 514.89 136.859C541.322 143.107 563.201 154.077 583.812 164.774C620.191 183.677 658.936 209.579 712.09 212.842C746.192 214.938 779.774 204.861 808.514 196.024C840.968 186.046 871.794 174.56 904.238 164.571C933.646 155.515 968.567 144.95 1003.52 147.687C1033.58 150.04 1059.27 161.252 1081.08 172.081C1123.41 193.09 1167.86 226.858 1231.86 223.753C1306.52 220.127 1362.24 185.24 1438.05 182.75" stroke="url(#paint14_linear_385_6918)" stroke-miterlimit="10"/>
    <path d="M0.139648 176.425C54.9919 176.019 113.838 179.771 167.762 173.622C253.281 163.869 331.859 140.875 416.41 129.191C448.634 124.726 478.262 122.734 509.597 129.975C536.439 136.179 559.197 146.865 580.577 157.479C618.174 176.129 658.706 201.938 711.811 205.992C745.603 208.575 778.926 198.707 807.405 189.908C839.31 180.035 869.487 168.62 901.372 158.751C930.69 149.679 965.281 139.415 1000.07 142.542C1030.17 145.252 1056.31 156.513 1078.61 167.226C1121.5 187.797 1167.41 220.72 1230.92 217.659C1305.91 214.05 1361.94 178.938 1438.08 176.458" stroke="url(#paint15_linear_385_6918)" stroke-miterlimit="10"/>
    <path d="M0.159668 170.221C55.3914 169.832 114.208 174.577 168.511 168.115C252.073 158.181 328.364 134.95 410.927 123.063C443.282 118.406 472.35 116.656 503.946 123.689C531.267 129.766 554.873 140.145 577.082 150.567C616.246 168.883 658.197 194.319 711.451 199.118C744.844 202.124 777.578 192.684 805.778 183.946C836.983 174.269 866.392 162.953 897.578 153.266C926.786 144.188 960.708 134.435 995.289 137.907C1025.53 140.951 1052.21 152.169 1075.18 162.734C1118.92 182.849 1166.48 214.763 1229.65 211.718C1305.09 208.081 1361.55 172.734 1438.15 170.238" stroke="url(#paint16_linear_385_6918)" stroke-miterlimit="10"/>
    <path d="M0.169922 164.138C55.851 163.831 114.648 169.717 169.44 162.975C250.904 152.953 324.77 129.514 405.206 117.561C437.54 112.745 466.209 111.248 497.964 117.973C525.775 123.864 550.21 133.881 573.327 143.985C614.269 161.883 657.498 186.71 710.952 192.201C775.461 198.833 840.648 164.319 892.924 148.049C922.023 138.987 955.026 129.909 989.308 133.71C1019.78 137.095 1047.03 148.203 1070.78 158.609C1115.64 178.252 1164.97 209.025 1227.98 205.964C1303.98 202.278 1360.98 166.672 1438.13 164.138" stroke="url(#paint17_linear_385_6918)" stroke-miterlimit="10"/>
    <path d="M0.189941 158.18C56.3603 158.01 115.167 165.158 170.528 158.18C249.806 148.153 321.125 124.604 399.324 112.613C431.548 107.676 459.938 106.448 491.783 112.783C520.103 118.428 545.387 128 569.413 137.786C612.132 155.174 656.649 179.173 710.373 185.344C773.903 192.629 836.285 159.113 887.592 143.107C915.962 134.27 949.035 125.361 982.378 129.914C1013.33 134.138 1040.61 144.379 1065.71 154.801C1111.85 173.946 1163.08 203.473 1226.09 200.38C1302.74 196.622 1360.35 160.748 1438.15 158.142" stroke="url(#paint18_linear_385_6918)" stroke-miterlimit="10"/>
    <path d="M0.209473 152.339C56.9091 152.339 115.776 160.858 171.756 153.622C248.777 143.666 317.48 120.019 393.372 108.094C525.185 87.3644 593.948 163.891 709.734 178.537C772.145 186.442 831.371 154.133 881.75 138.45C909.99 129.673 941.785 121.681 974.708 126.492C1006.05 131.072 1033.96 141.088 1060.08 151.313C1107.66 169.963 1160.87 198.147 1224.01 195.004C1301.37 191.164 1359.66 155.01 1438.18 152.339" stroke="url(#paint19_linear_385_6918)" stroke-miterlimit="10"/>
    <path d="M0.229492 146.623C57.4783 146.854 116.445 156.771 173.094 149.322C247.818 139.498 313.895 115.796 387.421 103.975C516.508 83.2288 595.126 156.086 709.045 171.779C770.378 180.238 826.049 149.361 875.509 133.98C903.629 125.236 934.036 118.297 966.49 123.327C998.255 128.264 1026.87 138.028 1054.04 148.039C1103.15 166.14 1158.39 192.969 1221.8 189.755C1299.92 185.8 1358.93 149.383 1438.21 146.623" stroke="url(#paint20_linear_385_6918)" stroke-miterlimit="10"/>
    <path d="M0.249512 141.028C58.0675 141.494 117.154 152.86 174.512 145.224C246.95 135.581 310.32 111.851 381.569 100.189C507.92 79.5035 596.265 148.378 708.336 165.12C768.57 174.116 820.457 144.758 869.048 129.678C897.068 120.984 925.967 115.159 957.922 120.353C990.126 125.614 1019.48 135.164 1047.72 144.928C1098.41 162.481 1155.69 187.911 1219.42 184.626C1298.31 180.55 1358.1 143.858 1438.17 141.006" stroke="url(#paint21_linear_385_6918)" stroke-miterlimit="10"/>
    <path d="M0.269531 135.553C58.6468 136.261 117.903 149.08 176.02 141.285C246.221 131.862 306.975 108.121 375.927 96.6563C499.592 76.0916 597.383 140.83 707.617 158.575C766.763 168.098 814.755 140.304 862.517 125.515C890.418 116.875 917.909 112.196 949.334 117.578C981.988 123.173 1012.12 132.481 1041.41 142.004C1093.69 159.009 1152.99 183.035 1217.11 179.667C1296.83 175.476 1357.37 138.526 1438.23 135.553" stroke="url(#paint22_linear_385_6918)" stroke-miterlimit="10"/>
    <path d="M0.289551 130.205C59.206 131.149 118.662 145.389 177.448 137.463C245.492 128.286 303.679 104.55 370.435 93.3107C491.653 72.9051 598.512 133.431 706.958 152.169C765.025 162.207 809.113 135.976 856.096 121.451C883.877 112.866 910.02 109.334 940.846 114.868C973.949 120.804 1004.84 129.898 1035.18 139.158C1089 155.581 1150.27 178.252 1214.84 174.813C1295.35 170.507 1356.64 133.255 1438.29 130.216" stroke="url(#paint23_linear_385_6918)" stroke-miterlimit="10"/>
    <path d="M0.30957 124.972C59.8152 126.141 119.411 141.747 178.916 133.711C244.913 124.797 300.644 101.078 365.322 90.0799C484.214 69.8608 599.62 126.185 706.249 145.916C763.348 156.481 803.491 131.703 849.825 117.468C877.516 108.966 902.291 106.498 932.598 112.192C966.13 118.467 997.766 127.381 1029.1 136.371C1084.39 152.229 1147.55 173.568 1212.57 170.04C1293.85 165.625 1355.85 128.105 1438.25 124.972" stroke="url(#paint24_linear_385_6918)" stroke-miterlimit="10"/>
    <path d="M0.32959 119.866C60.3944 121.226 120.16 138.116 180.334 129.997C244.444 121.352 297.868 97.6335 360.609 86.8931C421.473 76.4708 486.221 88.237 543.07 100.81C597.892 112.938 650.009 128.845 705.65 139.844C762.03 150.99 797.989 127.381 843.974 113.514C905.037 95.1102 967.578 118.451 1023.47 133.585C1080.1 148.9 1145.04 168.966 1210.48 165.362C1292.48 160.853 1355.16 123.069 1438.29 119.86" stroke="url(#paint25_linear_385_6918)" stroke-miterlimit="10"/>
    <path d="M0.349609 114.873C60.9737 116.393 120.749 134.451 181.693 126.272C244.094 117.89 295.391 94.188 356.445 83.6835C416.749 73.2942 483.205 84.5776 540.324 96.0915C596.255 107.369 649.489 122.262 705.12 133.979C760.752 145.696 793.246 123.244 838.641 109.575C898.317 91.6099 963.464 116.706 1018.39 130.776C1076.2 145.586 1142.79 164.434 1208.6 160.781C1291.23 156.189 1354.53 118.154 1438.27 114.873" stroke="url(#paint26_linear_385_6918)" stroke-miterlimit="10"/>
    <path d="M0.369629 110.008C61.5629 111.654 121.288 130.721 182.941 122.493C243.854 114.369 293.264 90.6777 352.7 80.3762C412.545 70.0362 480.519 80.8589 537.898 91.4183C594.817 101.901 649.12 115.9 704.661 128.335C730.864 134.199 750.067 134.44 775.401 126.876C795.992 120.727 813.407 111.796 833.968 105.603C861.399 97.3315 883.248 97.5619 911.977 103.711C946.498 111.111 980.131 119.619 1014 127.885C1072.79 142.191 1140.82 159.942 1206.93 156.256C1290.13 151.615 1353.96 113.327 1438.3 110.008" stroke="url(#paint27_linear_385_6918)" stroke-miterlimit="10"/>
    <path d="M0.389648 105.258C62.1521 106.904 121.698 126.881 184.069 118.626C243.775 110.721 291.497 86.9423 349.734 76.904C409.27 66.6409 478.492 77.0138 536.1 86.7778C593.709 96.5417 649.02 109.816 704.382 122.981C729.965 129.065 748.669 129.926 773.783 122.4C793.695 116.432 810.311 107.622 830.173 101.61C857.455 93.3493 878.964 94.2269 907.194 100.579C941.885 108.385 976.037 116.876 1010.55 124.912C1070.07 138.768 1139.43 155.532 1205.64 151.834C1289.3 147.166 1353.56 108.648 1438.31 105.307" stroke="url(#paint28_linear_385_6918)" stroke-miterlimit="10"/>
    <path d="M0.40918 100.639C62.7508 102.241 121.957 122.91 185.027 114.633C243.844 106.904 290.079 82.9436 347.507 73.2016C406.963 63.1029 476.934 73.0041 534.901 82.0714C593.339 91.2046 649.13 103.925 704.261 117.814C729.326 124.122 747.82 125.45 772.744 117.924C792.117 112.082 808.064 103.327 827.377 97.4305C854.528 89.1421 876.018 90.486 903.818 97.0795C938.559 105.308 973.11 113.821 1008.15 121.687C1068.07 135.143 1138.59 151.039 1204.74 147.37C1288.73 142.707 1353.3 103.969 1438.41 100.639" stroke="url(#paint29_linear_385_6918)" stroke-miterlimit="10"/>
    <path d="M0.429199 96.1352C63.34 97.5888 122.037 118.757 185.806 110.458C244.014 102.882 289.25 78.8178 345.989 69.191C405.255 59.1417 476.145 68.8289 534.262 77.3313C593.299 85.9708 649.339 98.3458 704.212 112.986C728.867 119.569 747.46 121.16 772.255 113.584C791.228 107.786 806.676 99.026 825.619 93.1731C852.671 84.8134 874.46 86.3931 901.931 93.2883C936.602 101.988 971.413 110.562 1006.84 118.296C1066.94 131.412 1138.28 146.595 1204.16 142.98C1288.35 138.367 1353.08 99.4209 1438.39 96.1352" stroke="url(#paint30_linear_385_6918)" stroke-miterlimit="10"/>
    <path d="M0.459473 91.7474C63.6898 93.0529 121.977 114.451 186.136 106.075C244.144 98.5054 289.11 74.4629 345.67 64.8909C404.876 54.8746 476.085 64.7592 534.223 73.0806C593.469 81.561 649.33 93.8428 704.272 108.549C728.837 115.132 747.69 116.503 772.315 108.977C791.159 103.217 806.507 94.5339 825.35 88.7578C852.312 80.4968 874.5 82.0327 901.712 89.1253C936.233 98.1214 971.084 106.761 1006.66 114.418C1066.47 127.293 1138.74 142.306 1204.11 138.554C1288.18 133.738 1353.33 95.45 1438.42 91.7638" stroke="url(#paint31_linear_385_6918)" stroke-miterlimit="10"/>
    <path d="M0.479492 87.4301C63.8497 88.6698 121.967 110.211 186.276 101.736C244.194 94.1003 289.39 70.2608 345.99 60.7491C405.196 50.7987 476.245 61.1167 534.293 69.4929C593.349 78.0172 648.97 90.277 704.292 104.287C756.658 117.545 782.611 97.1557 825.74 84.4406C852.701 76.4922 875.03 77.9404 901.992 85.0604C936.363 94.1387 971.154 102.756 1006.72 110.326C1066.18 122.975 1139.39 138.06 1204.29 133.99C1288 128.735 1353.95 92.0049 1438.47 87.5124" stroke="url(#paint32_linear_385_6918)" stroke-miterlimit="10"/>
    <path d="M0.499512 83.1792C64.0594 84.3751 122.037 106.075 186.546 97.529C244.464 89.8495 289.839 66.2623 346.469 56.8384C405.675 46.9647 476.515 57.6777 534.473 66.0813C593.299 74.6111 648.711 86.8161 704.352 100.118C756.278 112.537 783.16 92.5099 826.319 80.3707C853.281 72.768 875.809 74.1722 902.531 81.3032C936.742 90.4309 971.433 98.9827 1006.99 106.421C1066.21 118.812 1140.14 133.738 1204.51 129.394C1287.8 123.777 1354.56 88.6427 1438.46 83.4371" stroke="url(#paint33_linear_385_6918)" stroke-miterlimit="10"/>
    <path d="M0.519531 79.0048C64.2991 80.1677 122.187 102.043 186.935 93.4588C244.783 85.7903 290.429 62.4719 347.098 53.1467C406.304 43.4376 476.914 54.4193 534.762 62.8284C593.309 71.3308 648.601 83.4425 704.442 96.0095C755.999 107.6 783.799 88.0173 827.068 76.4432C854.1 69.2189 876.797 70.6232 903.32 77.7487C937.341 86.8928 971.962 95.3458 1007.46 102.608C1066.53 114.704 1140.91 129.262 1204.84 124.693C1287.72 118.774 1355.25 85.2911 1438.51 79.4437" stroke="url(#paint34_linear_385_6918)" stroke-miterlimit="10"/>
    <path d="M0.539062 74.9016C64.5883 76.0535 122.366 98.0993 187.444 89.5092C245.242 81.8845 291.167 58.8294 347.887 49.6907C407.073 40.1516 477.323 51.3802 535.151 59.7619C593.379 68.2094 648.501 80.195 704.571 92.005C755.739 102.784 784.518 83.7166 827.986 72.7677C855.108 65.933 877.985 67.3866 904.338 74.4902C938.094 83.6807 972.732 91.8587 1008.1 98.9879C1067.12 110.749 1141.71 124.769 1205.27 119.991C1287.61 113.831 1355.97 82.0381 1438.5 75.6366" stroke="url(#paint35_linear_385_6918)" stroke-miterlimit="10"/>
    <path d="M0.569336 70.8756C64.9081 72.0275 122.666 94.2653 188.064 85.6861C245.812 78.1218 292.046 55.3739 348.836 46.4217C408.002 37.0965 477.953 48.5007 535.671 56.844C593.589 65.2037 648.561 77.0247 704.761 88.0668C755.549 98.0502 785.367 79.548 829.095 69.2629C856.346 62.8505 879.394 64.3864 905.596 71.457C939.149 80.5867 973.661 88.6114 1008.95 95.4885C1068 106.882 1142.58 120.14 1205.8 115.236C1287.61 108.889 1356.75 78.8349 1438.56 71.9343" stroke="url(#paint36_linear_385_6918)" stroke-miterlimit="10"/>
    <path d="M0.589355 66.9371C65.2577 68.0945 123.006 90.5243 188.773 82.011C246.481 74.5399 293.045 52.1211 349.854 43.3828C408.99 34.2881 478.572 45.8293 536.24 54.1013C593.728 62.3294 648.681 73.9639 704.941 84.2216C755.369 93.4206 786.285 75.5492 830.313 65.9607C857.714 59.9926 880.941 61.6437 907.034 68.7034C940.357 77.7458 974.715 85.59 1009.89 92.1864C1069.03 103.157 1143.39 115.532 1206.34 110.513C1287.58 104.04 1357.47 75.7576 1438.54 68.4346" stroke="url(#paint37_linear_385_6918)" stroke-miterlimit="10"/>
    <path d="M0.609375 63.0753C65.6372 64.2602 123.435 86.9039 189.581 78.4344C247.25 71.095 294.153 49.0327 351.023 40.5304C410.119 31.6989 479.321 43.3225 536.859 51.5012C593.948 59.6196 648.84 70.9908 705.121 80.4585C755.2 88.8786 787.274 71.6819 831.631 62.8285C859.202 57.3431 882.609 59.1204 908.622 66.1197C941.725 75.055 975.939 82.6897 1011.01 88.9664C1070.34 99.5148 1144.28 110.842 1207 105.735C1287.65 99.1528 1358.25 72.7077 1438.57 65.0062" stroke="url(#paint38_linear_385_6918)" stroke-miterlimit="10"/>
    <path d="M0.628906 59.3009C66.0462 60.5186 123.834 83.3817 190.47 75.0275C248.098 67.7977 295.371 46.1085 352.3 37.8694C411.347 29.3287 480.119 40.9906 537.578 49.0651C594.267 57.0354 649.11 68.1214 705.34 76.7883C755.079 84.4679 788.382 67.9733 833.089 59.8823C860.849 54.8632 884.436 56.8324 910.389 63.7221C943.26 72.5218 977.312 79.9232 1012.24 85.8611C1071.81 95.9268 1145.15 106.086 1207.69 100.919C1287.74 94.3361 1359.01 69.7067 1438.57 61.687" stroke="url(#paint39_linear_385_6918)" stroke-miterlimit="10"/>
    <path d="M0.649414 55.62C66.4761 56.8817 124.324 79.9642 191.379 71.7251C249.037 64.6654 296.68 43.3492 353.679 35.3954C412.665 27.1673 480.958 38.8238 538.417 46.7776C594.687 54.5778 649.49 65.3456 705.66 73.2062C755.06 80.1233 789.661 64.3967 834.737 57.1066C862.697 52.5866 886.454 54.7479 912.387 61.6046C945.019 70.2498 978.901 77.3926 1013.68 82.9592C1073.48 92.5093 1146.08 101.418 1208.48 96.19C1287.9 89.5691 1359.81 66.8596 1438.61 58.5657" stroke="url(#paint40_linear_385_6918)" stroke-miterlimit="10"/>
    <path d="M0.668945 52.0497C66.905 53.3498 124.823 76.6517 192.467 68.5498C250.035 61.6492 298.077 40.7498 355.136 33.0977C414.053 25.1933 481.877 36.8223 539.205 44.617C595.066 52.2308 649.829 62.642 705.879 69.7017C754.97 75.8893 790.939 60.9251 836.364 54.4743C864.524 50.4645 888.47 52.8287 914.414 59.636C946.799 68.1084 980.499 74.9724 1015.11 80.1459C1075.3 89.142 1146.99 96.6569 1209.3 91.4403C1288.1 84.8579 1360.58 64.0573 1438.63 55.5275" stroke="url(#paint41_linear_385_6918)" stroke-miterlimit="10"/>
    <path d="M0.688965 48.5386C67.4044 49.9154 125.432 73.4422 193.556 65.4939C251.114 58.7853 299.575 38.3028 356.674 30.9688C415.541 23.4155 482.855 34.9787 540.104 42.6418C595.546 50.0635 650.268 60.0798 706.169 66.3387C754.97 71.824 792.357 57.6662 838.122 52.0766C866.492 48.5934 890.617 51.2099 916.601 57.9241C948.74 66.2064 982.253 72.7734 1016.68 77.5343C1077.23 85.938 1147.93 92.0103 1210.15 86.7882C1288.34 80.2331 1361.34 61.4183 1438.65 52.691" stroke="url(#paint42_linear_385_6918)" stroke-miterlimit="10"/>
    <path d="M0.708984 45.1435C67.9037 46.5917 126.031 70.3434 194.724 62.5706C252.232 56.0595 301.083 36.0104 358.282 29.011C417.069 21.8142 483.864 33.2951 541.023 40.7881C596.065 48.0014 650.718 57.5954 706.439 63.0533C754.99 67.8092 793.825 54.5071 839.939 49.7513C868.509 46.8056 892.804 49.68 918.877 56.3337C950.766 64.4101 984.085 70.6599 1018.31 74.9841C1079.22 82.7514 1148.84 87.3152 1211.03 82.1151C1288.61 75.6368 1362.07 58.8076 1438.67 49.9049" stroke="url(#paint43_linear_385_6918)" stroke-miterlimit="10"/>
    <path d="M0.729004 41.8525C68.3931 43.3775 126.67 67.3541 195.892 59.7678C253.411 53.4651 302.671 33.8603 359.94 27.2065C418.647 20.3882 484.913 31.7539 542.032 39.0714C596.684 46.0763 651.257 55.2094 706.798 59.872C755.14 63.9257 795.452 51.4904 841.897 47.6122C870.676 45.2041 895.141 48.3527 921.314 54.9078C952.955 62.7753 986.078 68.7024 1020.08 72.5817C1081.41 79.6743 1149.84 82.6803 1212.01 77.5185C1288.9 71.1226 1362.8 56.323 1438.69 47.2721" stroke="url(#paint44_linear_385_6918)" stroke-miterlimit="10"/>
    <path d="M0.749023 38.6653C68.9024 40.2725 127.33 64.4467 197.121 57.0908C254.639 51.0075 304.309 31.847 361.647 25.5552C420.274 19.1373 486.001 30.3604 543.05 37.4914C597.333 44.2769 651.806 52.9219 707.108 56.7945C755.279 60.1681 797.06 48.6158 843.804 45.6153C872.763 43.7558 897.418 47.1896 923.691 53.6624C955.086 61.3061 988.009 66.8939 1021.78 70.3105C1083.49 76.6901 1150.72 78.1108 1212.89 72.9874C1289.22 66.7012 1363.41 53.9476 1438.64 44.7651" stroke="url(#paint45_linear_385_6918)" stroke-miterlimit="10"/>
    <path d="M0.769043 35.5933C69.4217 37.2828 128.019 61.7037 198.369 54.5398C255.877 48.6759 305.986 29.9762 363.395 24.0739C421.922 18.04 487.1 29.137 544.139 36.0705C598.062 42.653 652.415 50.7659 707.487 53.8541C755.569 56.5529 798.778 45.9003 845.881 43.7829C875.05 42.4719 899.805 46.2075 926.327 52.5925C957.48 60.0085 990.202 65.2495 1023.73 68.1929C1164.53 80.9684 1302.5 59.4163 1438.78 42.4116" stroke="url(#paint46_linear_385_6918)" stroke-miterlimit="10"/>
    <path d="M0.789062 32.6198C69.951 34.4026 128.718 59.0375 199.647 52.0984C257.156 46.4704 307.694 28.237 365.173 22.6803C423.6 17.0303 488.228 27.9901 545.147 34.7207C598.761 41.0783 652.955 48.6646 707.777 50.952C755.849 52.9761 800.416 43.2724 847.868 42.0108C877.207 41.2429 902.171 45.302 928.843 51.5938C959.64 58.9058 992.343 63.5684 1025.55 66.1465C1162.76 76.8046 1305.88 57.0188 1438.75 40.1293" stroke="url(#paint47_linear_385_6918)" stroke-miterlimit="10"/>
    <path d="M0.808594 29.768C70.4798 31.644 129.426 56.4929 200.935 49.7842C258.453 44.3701 309.411 26.6249 366.96 21.4412C425.287 16.1917 489.356 27.0034 546.215 33.5091C599.54 39.6253 653.543 46.674 708.116 48.2154C756.278 49.5758 802.103 40.7882 849.915 40.4207C879.423 40.1958 904.547 44.5731 931.429 50.788C962.026 57.8587 994.51 62.1209 1027.43 64.2382C1090.15 68.27 1153.75 64.8361 1215.96 59.9048C1290.59 53.986 1365.33 47.4913 1438.77 37.9632" stroke="url(#paint48_linear_385_6918)" stroke-miterlimit="10"/>
    <path d="M0.829102 27.0304C70.4105 28.9667 129.277 53.8594 200.716 47.7267C258.005 42.7899 309.062 25.7358 366.161 20.5631C423.879 15.3355 486.66 25.7084 543.02 31.9727C597.503 38.0066 652.695 44.7482 708.466 45.5929C757.976 46.3444 806.217 38.0395 855.617 39.0105C885.435 39.5974 910.29 44.9511 937.621 50.8973C966.011 57.0738 995.988 60.6119 1026.31 62.285C1090.83 65.845 1154.83 60.5955 1218.59 55.6422C1292.19 49.9264 1366.44 45.5271 1438.82 35.9715" stroke="url(#paint49_linear_385_6918)" stroke-miterlimit="10"/>
    <path d="M0.838867 24.4145C70.8996 26.4441 130.006 51.5452 201.974 45.6485C259.273 40.953 310.74 24.3487 367.928 19.5544C425.527 14.7492 487.808 24.974 544.089 31.0354C598.312 36.8828 653.294 43.1032 708.775 43.1032C758.575 43.1032 807.885 35.9009 857.694 37.7385C887.552 38.8356 912.616 44.4965 940.157 50.3165C968.357 56.2736 998.135 59.4387 1028.19 60.6894C1092.93 63.3827 1155.82 56.4547 1219.57 51.6385C1292.69 46.1147 1366.93 43.7615 1438.8 34.0852" stroke="url(#paint50_linear_385_6918)" stroke-miterlimit="10"/>
    <path d="M0.858887 21.9232C71.4488 24.046 130.675 49.3502 203.252 43.6837C260.571 39.2077 312.437 23.0696 369.706 18.6484C427.185 14.1998 488.977 24.3532 545.227 30.2171C599.151 35.8506 653.923 41.5115 709.115 40.7107C759.274 39.9811 809.552 33.8594 859.781 36.5527C889.679 38.16 914.943 44.1226 942.664 49.8164C970.624 55.5596 1000.26 58.3517 1030.04 59.18C1094.95 60.9956 1156.8 52.422 1220.53 47.7374C1293.19 42.3947 1367.32 42.0985 1438.77 32.3016" stroke="url(#paint51_linear_385_6918)" stroke-miterlimit="10"/>
    <path d="M0.878906 19.5593C71.9581 21.7534 131.434 47.2715 204.52 41.8409C261.849 37.5788 314.115 21.8796 371.474 17.8533C428.832 13.8271 490.125 23.8434 546.226 29.5043C600.02 34.9348 654.532 40.0637 709.424 38.4565C760.023 36.9754 811.16 31.9508 861.808 35.4889C891.766 37.5788 917.21 43.8651 945.19 49.4272C973.171 54.9894 1002.43 57.3811 1031.93 57.7979C1096.84 58.725 1157.87 48.5441 1221.53 43.9912C1293.77 38.824 1367.84 40.5793 1438.81 30.6398" stroke="url(#paint52_linear_385_6918)" stroke-miterlimit="10"/>
    <path d="M0.888672 17.3219C72.4572 19.6258 132.143 45.2974 205.748 40.1192C263.107 36.0655 315.752 20.8436 373.191 17.1574C430.39 13.4876 491.303 23.4381 547.304 28.9071C600.938 34.1401 655.151 38.7314 709.774 36.3343C760.871 34.0908 812.768 30.1577 863.865 34.5241C893.733 37.0803 919.476 43.6957 947.657 49.1317C975.317 54.4635 1004.58 56.515 1033.75 56.5315C1098.66 56.5754 1158.92 44.8367 1222.49 40.4045C1294.38 35.3908 1368.28 39.1922 1438.81 29.0936" stroke="url(#paint53_linear_385_6918)" stroke-miterlimit="10"/>
    <path d="M0.898926 15.2207C72.9468 17.6014 132.812 43.4869 206.947 38.5062C264.335 34.6664 317.36 19.8559 374.869 16.5646C432.008 13.2734 492.312 23.1471 548.323 28.424C601.847 33.4487 655.79 37.5243 710.094 34.3483C761.74 31.3313 814.306 28.4899 865.873 33.6681C895.73 36.6576 921.694 43.6076 950.083 48.9175C977.614 54.0628 1006.62 55.7468 1035.53 55.3738C1100.34 54.5455 1159.97 41.3037 1223.45 36.9758C1294.93 32.1047 1368.64 37.9522 1438.84 27.6506" stroke="url(#paint54_linear_385_6918)" stroke-miterlimit="10"/>
    <path d="M0.918945 13.251C73.4162 15.7139 133.491 41.775 208.115 37.0137C265.534 33.344 318.958 19.0106 376.497 16.0321C433.516 13.0809 493.331 22.9382 549.312 28.0176C602.736 32.8503 656.41 36.4158 710.403 32.4773C762.629 28.6704 815.844 26.9041 867.77 32.8777C897.598 36.3061 923.781 43.5852 952.42 48.7853C979.781 53.7222 1008.64 55.0826 1037.3 54.3311C1101.94 52.6471 1161.05 37.9681 1224.42 33.7334C1295.57 28.9776 1369.06 36.8546 1438.92 26.3501" stroke="url(#paint55_linear_385_6918)" stroke-miterlimit="10"/>
    <path d="M0.928711 11.4189C73.8254 13.9587 134.12 40.2063 209.223 35.6369C266.672 32.1373 320.396 18.2373 378.064 15.5878C434.983 12.9768 494.359 22.8176 550.25 27.7215C603.604 32.4115 657.009 35.4395 710.683 30.7549C763.518 26.1472 817.211 25.4341 869.587 32.1811C899.355 36.0209 925.788 43.6292 954.617 48.7086C981.838 53.5029 1010.54 54.4957 1038.9 53.3877C1103.31 50.8699 1162.01 34.8361 1225.26 30.6562C1296.16 25.9881 1369.35 35.8838 1438.9 25.1269" stroke="url(#paint56_linear_385_6918)" stroke-miterlimit="10"/>
    <path d="M0.938477 9.73535C74.2945 12.3354 134.749 38.7586 210.272 34.3702C267.77 31.0351 321.824 17.5465 379.552 15.2207C436.381 12.9333 495.298 22.7741 551.138 27.5245C604.443 32.0609 657.588 34.5842 710.962 29.1701C764.336 23.756 818.559 24.0742 871.345 31.5672C901.042 35.7855 927.735 43.6351 956.724 48.6926C983.685 53.4045 1012.42 53.997 1040.43 52.5324C1104.58 49.2411 1162.96 31.9128 1226.08 27.7878C1296.67 23.1746 1369.65 35.0724 1438.9 24.0248" stroke="url(#paint57_linear_385_6918)" stroke-miterlimit="10"/>
    <path d="M0.998535 8.16602C74.754 10.8209 135.338 37.4196 211.31 33.2013C268.789 30.0253 323.162 16.9426 380.96 14.9185C437.659 12.9328 496.197 22.8065 551.977 27.4197C605.252 31.8081 658.147 33.8541 711.212 27.7269C765.275 21.49 819.818 22.7901 872.982 31.0182C902.62 35.593 929.542 43.7388 958.701 48.725C985.553 53.3163 1014.14 53.5796 1041.86 51.8188C1072.11 49.8934 1101.6 45.4831 1130.64 40.5902C1161.97 35.3187 1194.22 27.2771 1226.86 25.1488C1297.21 20.5575 1369.94 34.4301 1438.91 23.0534" stroke="url(#paint58_linear_385_6918)" stroke-miterlimit="10"/>
    <path d="M0.998535 6.79492C75.1135 9.49373 135.807 36.2624 212.219 32.1868C269.748 29.115 324.41 16.3944 382.278 14.6719C438.888 12.966 497.005 22.9 552.736 27.3981C606.011 31.6876 658.696 33.251 711.451 26.4326C766.104 19.3674 821.006 21.611 874.56 30.5522C904.068 35.489 931.22 43.8817 960.528 48.7966C987.27 53.2781 1015.73 53.2452 1043.18 51.1827C1073.37 48.9227 1102.69 44.1285 1131.56 38.9229C1162.66 33.3168 1194.96 24.8583 1227.59 22.7135C1297.72 18.1113 1370.22 33.9312 1438.92 22.165" stroke="url(#paint59_linear_385_6918)" stroke-miterlimit="10"/>
    <path d="M0.998535 5.5498C75.453 8.2925 136.307 35.2203 213.048 31.2653C270.616 28.2922 325.538 15.9556 383.456 14.48C439.986 13.0374 497.714 23.0866 553.405 27.4694C606.69 31.6548 659.185 32.7793 711.631 25.2753C766.913 17.3928 822.065 20.5194 875.998 30.1463C905.396 35.3903 932.748 44.0408 962.206 48.9008C988.838 53.2892 1017.13 52.982 1044.38 50.6507C1074.5 48.0726 1103.67 42.9163 1132.38 37.4254C1163.28 31.5176 1195.61 22.6862 1228.25 20.5085C1298.15 15.8459 1370.48 33.5911 1438.95 21.4026" stroke="url(#paint60_linear_385_6918)" stroke-miterlimit="10"/>
    <path d="M0.998535 4.45801C75.7625 7.2007 136.716 34.315 213.787 30.4533C271.425 27.5625 326.627 15.5659 384.605 14.3317C441.075 13.1249 498.443 23.3223 554.074 27.6173C607.379 31.7259 659.725 32.4335 711.851 24.2877C767.702 15.5604 822.993 19.5099 877.306 29.7731C906.605 35.3188 934.136 44.1942 963.714 49.0104C990.256 53.3274 1018.45 52.7788 1045.44 50.2007C1075.52 47.3263 1104.52 41.8409 1133.11 36.0868C1163.84 29.8938 1196.19 20.7606 1228.87 18.5335C1298.63 13.7722 1370.78 33.3989 1438.95 20.7277" stroke="url(#paint61_linear_385_6918)" stroke-miterlimit="10"/>
    <path d="M0.998535 3.52539C76.0521 6.26809 137.066 33.5524 214.436 29.751C272.084 26.9206 327.536 15.2422 385.563 14.2C441.973 13.2071 498.963 23.5855 554.594 27.8202C607.928 31.8794 660.174 32.2085 712.001 23.4319C768.431 13.8708 823.752 18.5663 878.465 29.4658C907.633 35.2803 935.324 44.3586 965.012 49.1419C991.474 53.4095 1019.52 52.6525 1046.33 49.855C1076.36 46.7119 1105.24 40.9303 1133.71 34.9347C1164.3 28.4894 1196.62 19.1204 1229.39 16.8329C1299 11.9235 1371.06 33.3988 1438.96 20.1681" stroke="url(#paint62_linear_385_6918)" stroke-miterlimit="10"/>
    <path d="M0.998535 2.74707C75.6827 5.48977 136.496 32.7741 213.417 29.236C274.201 26.444 332.958 13.833 394.291 14.0909C446.727 14.3103 499.342 23.7726 551.139 27.8427C606.171 32.1652 658.846 32.0445 712.14 22.7907C771.237 12.555 826.608 17.9361 883.567 30.1082C909.101 35.5607 933.427 42.9989 959.15 48.1058C986.372 53.5089 1016.26 52.9823 1044.27 49.9818C1076.05 46.5808 1106.48 40.1081 1136.46 33.5256C1166.68 26.8663 1198.8 17.4918 1231.38 15.2976C1300.29 10.6844 1371.94 33.4598 1438.95 19.7244" stroke="url(#paint63_linear_385_6918)" stroke-miterlimit="10"/>
    <path d="M0.998535 2.13281C75.8924 4.83711 136.706 32.3025 213.837 28.7589C274.641 25.9614 333.667 13.6466 394.98 14.0581C447.376 14.4146 499.722 24.1402 551.488 28.2158C606.56 32.5493 659.225 32.1214 712.26 22.2642C771.956 11.1618 827.038 17.1738 884.466 29.9437C909.88 35.5937 934.275 43.0977 960.069 48.2101C987.23 53.6187 1016.99 52.9824 1044.84 49.8118C1076.6 46.197 1106.91 39.4444 1136.8 32.6864C1166.98 25.8626 1199.09 16.3839 1231.75 14.08C1300.53 9.26382 1372.26 33.7451 1438.96 19.346" stroke="url(#paint64_linear_385_6918)" stroke-miterlimit="10"/>
    <path d="M0.998535 1.69336C76.0422 4.35377 136.806 31.9837 214.156 28.3853C274.97 25.5548 334.126 13.5034 395.519 14.0465C447.895 14.5072 499.991 24.5455 551.738 28.6541C606.84 33.0424 659.585 32.3457 712.28 21.8961C772.555 9.94887 827.197 16.4655 885.115 29.7731C910.469 35.5931 934.925 43.1739 960.738 48.3466C987.879 53.7826 1017.38 53.097 1045.21 49.7783C1109.51 42.0988 1167.12 18.0563 1232.03 13.2072C1300.69 8.07835 1372.61 34.2108 1438.96 19.0875" stroke="url(#paint65_linear_385_6918)" stroke-miterlimit="10"/>
    <path d="M0.998535 1.41406C76.162 4.01962 136.906 31.8141 214.346 28.1279C275.17 25.2261 334.526 13.4106 395.889 14.0414C448.274 14.59 500.141 24.9793 551.868 29.1592C606.989 33.6133 659.914 32.7137 712.31 21.699C773.114 8.91259 827.147 15.8077 885.614 29.6529C910.759 35.5935 935.274 43.4651 961.147 48.4348C988.628 53.7063 1017.24 53.2784 1045.37 49.8117C1109.78 41.8688 1167.07 17.8044 1232.21 12.6043C1300.78 7.11887 1373.01 34.8475 1438.92 18.9234" stroke="url(#paint66_linear_385_6918)" stroke-miterlimit="10"/>
    <path d="M0.998535 1.30957C76.2419 3.83834 136.876 31.7974 214.396 27.9741C275.22 24.9735 334.656 13.3555 396.138 14.0357C448.534 14.6171 500.201 25.4453 551.917 29.7239C607.039 34.2823 660.244 33.2345 712.33 21.6659C773.603 8.04563 826.878 15.1876 885.904 29.5593C939.827 42.6804 984.255 57.6171 1045.32 49.9266C1109.9 41.7918 1166.92 17.9303 1232.29 12.3133C1300.78 6.42744 1373.39 35.6536 1439 18.8957" stroke="url(#paint67_linear_385_6918)" stroke-miterlimit="10"/>
    <defs>
        <linearGradient id="paint0_linear_385_6918" x1="1.03666e+06" y1="630.619" x2="1.03666e+06" y2="375.18" gradientUnits="userSpaceOnUse">
            <stop stop-color="#7935FF"/>
            <stop offset="1" stop-color="#062F66"/>
        </linearGradient>
        <linearGradient id="paint1_linear_385_6918" x1="1.03668e+06" y1="916.585" x2="1.03668e+06" y2="444.853" gradientUnits="userSpaceOnUse">
            <stop stop-color="#7935FF"/>
            <stop offset="1" stop-color="#062F66"/>
        </linearGradient>
        <linearGradient id="paint2_linear_385_6918" x1="1.03668e+06" y1="1343.35" x2="1.03668e+06" y2="552.682" gradientUnits="userSpaceOnUse">
            <stop stop-color="#7935FF"/>
            <stop offset="1" stop-color="#062F66"/>
        </linearGradient>
        <linearGradient id="paint3_linear_385_6918" x1="1.03668e+06" y1="2052.06" x2="1.03668e+06" y2="735.456" gradientUnits="userSpaceOnUse">
            <stop stop-color="#7935FF"/>
            <stop offset="1" stop-color="#062F66"/>
        </linearGradient>
        <linearGradient id="paint4_linear_385_6918" x1="1.03668e+06" y1="2831.52" x2="1.03668e+06" y2="937.498" gradientUnits="userSpaceOnUse">
            <stop stop-color="#7935FF"/>
            <stop offset="1" stop-color="#062F66"/>
        </linearGradient>
        <linearGradient id="paint5_linear_385_6918" x1="1.03668e+06" y1="3780.19" x2="1.03668e+06" y2="1184.51" gradientUnits="userSpaceOnUse">
            <stop stop-color="#7935FF"/>
            <stop offset="1" stop-color="#062F66"/>
        </linearGradient>
        <linearGradient id="paint6_linear_385_6918" x1="1.03667e+06" y1="4777.68" x2="1.03667e+06" y2="1444.68" gradientUnits="userSpaceOnUse">
            <stop stop-color="#7935FF"/>
            <stop offset="1" stop-color="#062F66"/>
        </linearGradient>
        <linearGradient id="paint7_linear_385_6918" x1="1.03669e+06" y1="5778.16" x2="1.03669e+06" y2="1705.79" gradientUnits="userSpaceOnUse">
            <stop stop-color="#7935FF"/>
            <stop offset="1" stop-color="#062F66"/>
        </linearGradient>
        <linearGradient id="paint8_linear_385_6918" x1="1.03666e+06" y1="6729.18" x2="1.03666e+06" y2="1953.84" gradientUnits="userSpaceOnUse">
            <stop stop-color="#7935FF"/>
            <stop offset="1" stop-color="#062F66"/>
        </linearGradient>
        <linearGradient id="paint9_linear_385_6918" x1="1.03668e+06" y1="7672.58" x2="1.03668e+06" y2="2199.64" gradientUnits="userSpaceOnUse">
            <stop stop-color="#7935FF"/>
            <stop offset="1" stop-color="#062F66"/>
        </linearGradient>
        <linearGradient id="paint10_linear_385_6918" x1="1.03668e+06" y1="8397.07" x2="1.03668e+06" y2="2387.55" gradientUnits="userSpaceOnUse">
            <stop stop-color="#7935FF"/>
            <stop offset="1" stop-color="#062F66"/>
        </linearGradient>
        <linearGradient id="paint11_linear_385_6918" x1="1.03668e+06" y1="8933.69" x2="1.03668e+06" y2="2525.52" gradientUnits="userSpaceOnUse">
            <stop stop-color="#7935FF"/>
            <stop offset="1" stop-color="#062F66"/>
        </linearGradient>
        <linearGradient id="paint12_linear_385_6918" x1="1.03671e+06" y1="9219.91" x2="1.03671e+06" y2="2596.87" gradientUnits="userSpaceOnUse">
            <stop stop-color="#7935FF"/>
            <stop offset="1" stop-color="#062F66"/>
        </linearGradient>
        <linearGradient id="paint13_linear_385_6918" x1="1.03668e+06" y1="9346.66" x2="1.03668e+06" y2="2625.51" gradientUnits="userSpaceOnUse">
            <stop stop-color="#7935FF"/>
            <stop offset="1" stop-color="#062F66"/>
        </linearGradient>
        <linearGradient id="paint14_linear_385_6918" x1="1.03666e+06" y1="9475.14" x2="1.03666e+06" y2="2654.61" gradientUnits="userSpaceOnUse">
            <stop stop-color="#7935FF"/>
            <stop offset="1" stop-color="#062F66"/>
        </linearGradient>
        <linearGradient id="paint15_linear_385_6918" x1="1.03667e+06" y1="9547.61" x2="1.03667e+06" y2="2669.15" gradientUnits="userSpaceOnUse">
            <stop stop-color="#7935FF"/>
            <stop offset="1" stop-color="#062F66"/>
        </linearGradient>
        <linearGradient id="paint16_linear_385_6918" x1="1.03671e+06" y1="9568.06" x2="1.03671e+06" y2="2670.15" gradientUnits="userSpaceOnUse">
            <stop stop-color="#7935FF"/>
            <stop offset="1" stop-color="#062F66"/>
        </linearGradient>
        <linearGradient id="paint17_linear_385_6918" x1="1.03668e+06" y1="9542.96" x2="1.03668e+06" y2="2659.32" gradientUnits="userSpaceOnUse">
            <stop stop-color="#7935FF"/>
            <stop offset="1" stop-color="#062F66"/>
        </linearGradient>
        <linearGradient id="paint18_linear_385_6918" x1="1.03668e+06" y1="9476.59" x2="1.03668e+06" y2="2637.77" gradientUnits="userSpaceOnUse">
            <stop stop-color="#7935FF"/>
            <stop offset="1" stop-color="#062F66"/>
        </linearGradient>
        <linearGradient id="paint19_linear_385_6918" x1="1.03669e+06" y1="9324.96" x2="1.03669e+06" y2="2593.98" gradientUnits="userSpaceOnUse">
            <stop stop-color="#7935FF"/>
            <stop offset="1" stop-color="#062F66"/>
        </linearGradient>
        <linearGradient id="paint20_linear_385_6918" x1="1.0367e+06" y1="9223.35" x2="1.0367e+06" y2="2563.43" gradientUnits="userSpaceOnUse">
            <stop stop-color="#7935FF"/>
            <stop offset="1" stop-color="#062F66"/>
        </linearGradient>
        <linearGradient id="paint21_linear_385_6918" x1="1.03666e+06" y1="9100.68" x2="1.03666e+06" y2="2527.44" gradientUnits="userSpaceOnUse">
            <stop stop-color="#7935FF"/>
            <stop offset="1" stop-color="#062F66"/>
        </linearGradient>
        <linearGradient id="paint22_linear_385_6918" x1="1.03668e+06" y1="8970.47" x2="1.03668e+06" y2="2489.59" gradientUnits="userSpaceOnUse">
            <stop stop-color="#7935FF"/>
            <stop offset="1" stop-color="#062F66"/>
        </linearGradient>
        <linearGradient id="paint23_linear_385_6918" x1="1.03671e+06" y1="8832.8" x2="1.03671e+06" y2="2449.87" gradientUnits="userSpaceOnUse">
            <stop stop-color="#7935FF"/>
            <stop offset="1" stop-color="#062F66"/>
        </linearGradient>
        <linearGradient id="paint24_linear_385_6918" x1="1.03667e+06" y1="8693.32" x2="1.03667e+06" y2="2409.73" gradientUnits="userSpaceOnUse">
            <stop stop-color="#7935FF"/>
            <stop offset="1" stop-color="#062F66"/>
        </linearGradient>
        <linearGradient id="paint25_linear_385_6918" x1="1.03668e+06" y1="8511.71" x2="1.03668e+06" y2="2358.59" gradientUnits="userSpaceOnUse">
            <stop stop-color="#7935FF"/>
            <stop offset="1" stop-color="#062F66"/>
        </linearGradient>
        <linearGradient id="paint26_linear_385_6918" x1="1.03666e+06" y1="8381.74" x2="1.03666e+06" y2="2321.09" gradientUnits="userSpaceOnUse">
            <stop stop-color="#7935FF"/>
            <stop offset="1" stop-color="#062F66"/>
        </linearGradient>
        <linearGradient id="paint27_linear_385_6918" x1="1.03666e+06" y1="8265.9" x2="1.03666e+06" y2="2287.34" gradientUnits="userSpaceOnUse">
            <stop stop-color="#7935FF"/>
            <stop offset="1" stop-color="#062F66"/>
        </linearGradient>
        <linearGradient id="paint28_linear_385_6918" x1="1.03666e+06" y1="8174.87" x2="1.03666e+06" y2="2260.19" gradientUnits="userSpaceOnUse">
            <stop stop-color="#7935FF"/>
            <stop offset="1" stop-color="#062F66"/>
        </linearGradient>
        <linearGradient id="paint29_linear_385_6918" x1="1.03671e+06" y1="8096.33" x2="1.03671e+06" y2="2236.27" gradientUnits="userSpaceOnUse">
            <stop stop-color="#7935FF"/>
            <stop offset="1" stop-color="#062F66"/>
        </linearGradient>
        <linearGradient id="paint30_linear_385_6918" x1="1.03668e+06" y1="8057.38" x2="1.03668e+06" y2="2222.8" gradientUnits="userSpaceOnUse">
            <stop stop-color="#7935FF"/>
            <stop offset="1" stop-color="#062F66"/>
        </linearGradient>
        <linearGradient id="paint31_linear_385_6918" x1="1.03668e+06" y1="8038.69" x2="1.03668e+06" y2="2214.66" gradientUnits="userSpaceOnUse">
            <stop stop-color="#7935FF"/>
            <stop offset="1" stop-color="#062F66"/>
        </linearGradient>
        <linearGradient id="paint32_linear_385_6918" x1="1.03671e+06" y1="7987.25" x2="1.03671e+06" y2="2197.85" gradientUnits="userSpaceOnUse">
            <stop stop-color="#7935FF"/>
            <stop offset="1" stop-color="#062F66"/>
        </linearGradient>
        <linearGradient id="paint33_linear_385_6918" x1="1.03668e+06" y1="7909.95" x2="1.03668e+06" y2="2174.22" gradientUnits="userSpaceOnUse">
            <stop stop-color="#7935FF"/>
            <stop offset="1" stop-color="#062F66"/>
        </linearGradient>
        <linearGradient id="paint34_linear_385_6918" x1="1.03671e+06" y1="7797.18" x2="1.03671e+06" y2="2141.19" gradientUnits="userSpaceOnUse">
            <stop stop-color="#7935FF"/>
            <stop offset="1" stop-color="#062F66"/>
        </linearGradient>
        <linearGradient id="paint35_linear_385_6918" x1="1.03668e+06" y1="7662.12" x2="1.03668e+06" y2="2102.32" gradientUnits="userSpaceOnUse">
            <stop stop-color="#7935FF"/>
            <stop offset="1" stop-color="#062F66"/>
        </linearGradient>
        <linearGradient id="paint36_linear_385_6918" x1="1.03671e+06" y1="7500.65" x2="1.03671e+06" y2="2056.45" gradientUnits="userSpaceOnUse">
            <stop stop-color="#7935FF"/>
            <stop offset="1" stop-color="#062F66"/>
        </linearGradient>
        <linearGradient id="paint37_linear_385_6918" x1="1.03668e+06" y1="7320.63" x2="1.03668e+06" y2="2005.74" gradientUnits="userSpaceOnUse">
            <stop stop-color="#7935FF"/>
            <stop offset="1" stop-color="#062F66"/>
        </linearGradient>
        <linearGradient id="paint38_linear_385_6918" x1="1.03668e+06" y1="7116.78" x2="1.03668e+06" y2="1948.75" gradientUnits="userSpaceOnUse">
            <stop stop-color="#7935FF"/>
            <stop offset="1" stop-color="#062F66"/>
        </linearGradient>
        <linearGradient id="paint39_linear_385_6918" x1="1.03667e+06" y1="6890.54" x2="1.03667e+06" y2="1885.85" gradientUnits="userSpaceOnUse">
            <stop stop-color="#7935FF"/>
            <stop offset="1" stop-color="#062F66"/>
        </linearGradient>
        <linearGradient id="paint40_linear_385_6918" x1="1.03668e+06" y1="6657.19" x2="1.03668e+06" y2="1821.17" gradientUnits="userSpaceOnUse">
            <stop stop-color="#7935FF"/>
            <stop offset="1" stop-color="#062F66"/>
        </linearGradient>
        <linearGradient id="paint41_linear_385_6918" x1="1.03668e+06" y1="6405" x2="1.03668e+06" y2="1751.53" gradientUnits="userSpaceOnUse">
            <stop stop-color="#7935FF"/>
            <stop offset="1" stop-color="#062F66"/>
        </linearGradient>
        <linearGradient id="paint42_linear_385_6918" x1="1.03668e+06" y1="6150.86" x2="1.03668e+06" y2="1681.49" gradientUnits="userSpaceOnUse">
            <stop stop-color="#7935FF"/>
            <stop offset="1" stop-color="#062F66"/>
        </linearGradient>
        <linearGradient id="paint43_linear_385_6918" x1="1.03668e+06" y1="5883.44" x2="1.03668e+06" y2="1607.99" gradientUnits="userSpaceOnUse">
            <stop stop-color="#7935FF"/>
            <stop offset="1" stop-color="#062F66"/>
        </linearGradient>
        <linearGradient id="paint44_linear_385_6918" x1="1.03668e+06" y1="5617.23" x2="1.03668e+06" y2="1534.93" gradientUnits="userSpaceOnUse">
            <stop stop-color="#7935FF"/>
            <stop offset="1" stop-color="#062F66"/>
        </linearGradient>
        <linearGradient id="paint45_linear_385_6918" x1="1.03663e+06" y1="5356.62" x2="1.03663e+06" y2="1463.5" gradientUnits="userSpaceOnUse">
            <stop stop-color="#7935FF"/>
            <stop offset="1" stop-color="#062F66"/>
        </linearGradient>
        <linearGradient id="paint46_linear_385_6918" x1="1.03672e+06" y1="5077.5" x2="1.03672e+06" y2="1387.19" gradientUnits="userSpaceOnUse">
            <stop stop-color="#7935FF"/>
            <stop offset="1" stop-color="#062F66"/>
        </linearGradient>
        <linearGradient id="paint47_linear_385_6918" x1="1.03668e+06" y1="4905.41" x2="1.03668e+06" y2="1339.83" gradientUnits="userSpaceOnUse">
            <stop stop-color="#7935FF"/>
            <stop offset="1" stop-color="#062F66"/>
        </linearGradient>
        <linearGradient id="paint48_linear_385_6918" x1="1.03668e+06" y1="4693.35" x2="1.03668e+06" y2="1281.8" gradientUnits="userSpaceOnUse">
            <stop stop-color="#7935FF"/>
            <stop offset="1" stop-color="#062F66"/>
        </linearGradient>
        <linearGradient id="paint49_linear_385_6918" x1="1.03671e+06" y1="4524.79" x2="1.03671e+06" y2="1235.62" gradientUnits="userSpaceOnUse">
            <stop stop-color="#7935FF"/>
            <stop offset="1" stop-color="#062F66"/>
        </linearGradient>
        <linearGradient id="paint50_linear_385_6918" x1="1.03668e+06" y1="4388.43" x2="1.03668e+06" y2="1198.2" gradientUnits="userSpaceOnUse">
            <stop stop-color="#7935FF"/>
            <stop offset="1" stop-color="#062F66"/>
        </linearGradient>
        <linearGradient id="paint51_linear_385_6918" x1="1.03665e+06" y1="4275.06" x2="1.03665e+06" y2="1167.04" gradientUnits="userSpaceOnUse">
            <stop stop-color="#7935FF"/>
            <stop offset="1" stop-color="#062F66"/>
        </linearGradient>
        <linearGradient id="paint52_linear_385_6918" x1="1.03666e+06" y1="4178.62" x2="1.03666e+06" y2="1140.55" gradientUnits="userSpaceOnUse">
            <stop stop-color="#7935FF"/>
            <stop offset="1" stop-color="#062F66"/>
        </linearGradient>
        <linearGradient id="paint53_linear_385_6918" x1="1.03666e+06" y1="4100.18" x2="1.03666e+06" y2="1118.96" gradientUnits="userSpaceOnUse">
            <stop stop-color="#7935FF"/>
            <stop offset="1" stop-color="#062F66"/>
        </linearGradient>
        <linearGradient id="paint54_linear_385_6918" x1="1.03667e+06" y1="4102.64" x2="1.03667e+06" y2="1118.79" gradientUnits="userSpaceOnUse">
            <stop stop-color="#7935FF"/>
            <stop offset="1" stop-color="#062F66"/>
        </linearGradient>
        <linearGradient id="paint55_linear_385_6918" x1="1.03671e+06" y1="4209.49" x2="1.03671e+06" y2="1146.2" gradientUnits="userSpaceOnUse">
            <stop stop-color="#7935FF"/>
            <stop offset="1" stop-color="#062F66"/>
        </linearGradient>
        <linearGradient id="paint56_linear_385_6918" x1="1.03669e+06" y1="4320.19" x2="1.03669e+06" y2="1174.75" gradientUnits="userSpaceOnUse">
            <stop stop-color="#7935FF"/>
            <stop offset="1" stop-color="#062F66"/>
        </linearGradient>
        <linearGradient id="paint57_linear_385_6918" x1="1.03668e+06" y1="4432.85" x2="1.03668e+06" y2="1203.94" gradientUnits="userSpaceOnUse">
            <stop stop-color="#7935FF"/>
            <stop offset="1" stop-color="#062F66"/>
        </linearGradient>
        <linearGradient id="paint58_linear_385_6918" x1="1.03665e+06" y1="4548.74" x2="1.03665e+06" y2="1234.08" gradientUnits="userSpaceOnUse">
            <stop stop-color="#7935FF"/>
            <stop offset="1" stop-color="#062F66"/>
        </linearGradient>
        <linearGradient id="paint59_linear_385_6918" x1="1.03666e+06" y1="4656.16" x2="1.03666e+06" y2="1262.08" gradientUnits="userSpaceOnUse">
            <stop stop-color="#7935FF"/>
            <stop offset="1" stop-color="#062F66"/>
        </linearGradient>
        <linearGradient id="paint60_linear_385_6918" x1="1.03668e+06" y1="4761.19" x2="1.03668e+06" y2="1289.53" gradientUnits="userSpaceOnUse">
            <stop stop-color="#7935FF"/>
            <stop offset="1" stop-color="#062F66"/>
        </linearGradient>
        <linearGradient id="paint61_linear_385_6918" x1="1.03668e+06" y1="4858.06" x2="1.03668e+06" y2="1314.89" gradientUnits="userSpaceOnUse">
            <stop stop-color="#7935FF"/>
            <stop offset="1" stop-color="#062F66"/>
        </linearGradient>
        <linearGradient id="paint62_linear_385_6918" x1="1.03668e+06" y1="4946.98" x2="1.03668e+06" y2="1338.21" gradientUnits="userSpaceOnUse">
            <stop stop-color="#7935FF"/>
            <stop offset="1" stop-color="#062F66"/>
        </linearGradient>
        <linearGradient id="paint63_linear_385_6918" x1="1.03668e+06" y1="5032.22" x2="1.03668e+06" y2="1360.66" gradientUnits="userSpaceOnUse">
            <stop stop-color="#7935FF"/>
            <stop offset="1" stop-color="#062F66"/>
        </linearGradient>
        <linearGradient id="paint64_linear_385_6918" x1="1.03668e+06" y1="5096.37" x2="1.03668e+06" y2="1377.53" gradientUnits="userSpaceOnUse">
            <stop stop-color="#7935FF"/>
            <stop offset="1" stop-color="#062F66"/>
        </linearGradient>
        <linearGradient id="paint65_linear_385_6918" x1="1.03668e+06" y1="5152.1" x2="1.03668e+06" y2="1392.26" gradientUnits="userSpaceOnUse">
            <stop stop-color="#7935FF"/>
            <stop offset="1" stop-color="#062F66"/>
        </linearGradient>
        <linearGradient id="paint66_linear_385_6918" x1="1.03666e+06" y1="5186.15" x2="1.03666e+06" y2="1401.25" gradientUnits="userSpaceOnUse">
            <stop stop-color="#7935FF"/>
            <stop offset="1" stop-color="#062F66"/>
        </linearGradient>
        <linearGradient id="paint67_linear_385_6918" x1="1.03671e+06" y1="5157.78" x2="1.03671e+06" y2="1393.51" gradientUnits="userSpaceOnUse">
            <stop stop-color="#7935FF"/>
            <stop offset="1" stop-color="#062F66"/>
        </linearGradient>
    </defs>
</svg>
