<svg width="32" height="32" viewBox="0 0 32 32" fill="none" xmlns="http://www.w3.org/2000/svg">
    <g opacity="0.7">
        <path d="M14.4036 24.2585C14.9035 24.2585 15.3534 24.6584 15.3534 25.2083C15.3534 25.7082 14.9535 26.1581 14.4036 26.1581C13.9037 26.1581 13.4538 25.7582 13.4538 25.2083C13.4538 24.6584 13.9037 24.2585 14.4036 24.2585ZM29.1006 18.4597C28.6007 18.4597 28.1508 18.0597 28.1508 17.5099C28.1508 17.01 28.5507 16.56 29.1006 16.56C29.6005 16.56 30.0504 16.96 30.0504 17.5099C30.0504 18.0097 29.6005 18.4597 29.1006 18.4597ZM29.1006 14.6104C27.5009 14.6104 26.2012 15.9102 26.2012 17.5099C26.2012 17.8098 26.2512 18.1097 26.3512 18.4097L16.8031 23.5086C16.2532 22.7088 15.3534 22.2589 14.4036 22.2589C13.3038 22.2589 12.3041 22.9087 11.8042 23.8585L3.20592 19.3595C2.30611 18.8596 1.60625 17.4099 1.70623 16.0102C1.75622 15.3103 2.00617 14.7604 2.3561 14.5605C2.60604 14.4105 2.85599 14.4605 3.20592 14.6104L3.25591 14.6604C5.55544 15.8602 13.0039 19.7594 13.3038 19.9094C13.8037 20.1093 14.0537 20.2093 14.9035 19.8094L30.3004 11.811C30.5503 11.711 30.8002 11.5111 30.8002 11.1612C30.8002 10.7112 30.3503 10.5113 30.3503 10.5113C29.4505 10.1114 28.1008 9.46151 26.8011 8.86163C24.0016 7.5619 20.8023 6.0622 19.4026 5.31236C18.2028 4.66249 17.203 5.21238 17.0531 5.31236L16.7031 5.46233C10.3545 8.66167 1.95618 12.8108 1.45628 13.1108C0.606456 13.6107 0.0565688 14.6604 0.00657909 15.9602C-0.0934004 18.0097 0.956384 20.1593 2.45608 20.9092L11.5542 25.6082C11.7542 27.0079 13.0039 28.1077 14.4036 28.1077C16.0033 28.1077 17.253 26.8579 17.303 25.2583L27.301 19.8594C27.8009 20.2593 28.4507 20.4592 29.1006 20.4592C30.7003 20.4592 32 19.1595 32 17.5598C32 15.9102 30.7003 14.6104 29.1006 14.6104Z" fill="white"/>
    </g>
</svg>
