<svg width="32" height="32" viewBox="0 0 32 32" fill="none" xmlns="http://www.w3.org/2000/svg">
    <g opacity="0.7">
        <rect width="32" height="32" rx="16" fill="white"/>
        <path fill-rule="evenodd" clip-rule="evenodd" d="M15.9962 5.59961C13.3965 5.60096 10.8821 6.52172 8.90248 8.19724C6.92289 9.87277 5.60725 12.1938 5.19079 14.7453C4.77433 17.2968 5.28422 19.9125 6.62929 22.1245C7.97435 24.3365 10.0669 26.0007 12.5327 26.8194C13.0767 26.9204 13.2816 26.5832 13.2816 26.2966C13.2816 26.0099 13.2707 25.1787 13.2671 24.2699C10.2207 24.9281 9.57697 22.9844 9.57697 22.9844C9.08012 21.7223 8.36203 21.3905 8.36203 21.3905C7.36832 20.7162 8.43639 20.7288 8.43639 20.7288C9.53708 20.8063 10.1155 21.8521 10.1155 21.8521C11.0911 23.5163 12.6778 23.0349 13.3016 22.7536C13.3995 22.0486 13.6842 21.569 13.9979 21.2968C11.5644 21.0227 9.00758 20.0887 9.00758 15.9165C8.9925 14.8345 9.39632 13.7881 10.1355 12.9938C10.0231 12.7198 9.64769 11.6127 10.2425 10.109C10.2425 10.109 11.1618 9.81689 13.2544 11.2251C15.0493 10.737 16.9431 10.737 18.738 11.2251C20.8288 9.81689 21.7463 10.109 21.7463 10.109C22.3429 11.6091 21.9675 12.7162 21.8551 12.9938C22.5966 13.7882 23.0013 14.8364 22.9848 15.9201C22.9848 20.1014 20.4226 21.0227 17.9854 21.2914C18.3771 21.6303 18.7271 22.292 18.7271 23.3089C18.7271 24.7658 18.7144 25.9377 18.7144 26.2966C18.7144 26.5868 18.912 26.9258 19.4669 26.8194C21.9331 26.0006 24.0258 24.3361 25.3708 22.1237C26.7159 19.9113 27.2255 17.2953 26.8086 14.7435C26.3916 12.1918 25.0753 9.87073 23.0951 8.19549C21.1148 6.52026 18.5998 5.6001 15.9998 5.59961H15.9962Z" fill="#0A142F"/>
        <path d="M9.19223 21.234C9.16866 21.2881 9.08162 21.3043 9.0109 21.2665C8.94018 21.2286 8.88759 21.1583 8.91298 21.1024C8.93837 21.0465 9.02359 21.0321 9.09431 21.0699C9.16503 21.1078 9.21943 21.1799 9.19223 21.234Z" fill="#0A142F"/>
        <path d="M9.63638 21.7262C9.59882 21.745 9.55586 21.7502 9.51484 21.741C9.47382 21.7318 9.4373 21.7087 9.41153 21.6757C9.34081 21.5999 9.32629 21.4954 9.38069 21.4485C9.43509 21.4016 9.53302 21.4233 9.60374 21.499C9.67446 21.5747 9.69078 21.6793 9.63638 21.7262Z" fill="#0A142F"/>
        <path d="M10.0681 22.3515C10.001 22.3984 9.88678 22.3515 9.82332 22.2578C9.80577 22.2409 9.79181 22.2208 9.78228 22.1985C9.77274 22.1762 9.76782 22.1522 9.76782 22.1279C9.76782 22.1037 9.77274 22.0797 9.78228 22.0574C9.79181 22.0351 9.80577 22.0149 9.82332 21.9981C9.89041 21.953 10.0047 21.9981 10.0681 22.0901C10.1316 22.182 10.1334 22.3046 10.0681 22.3515Z" fill="#0A142F"/>
        <path d="M10.6539 22.9576C10.5941 23.0243 10.4726 23.0063 10.3729 22.9162C10.2731 22.826 10.2496 22.7034 10.3094 22.6385C10.3692 22.5736 10.4907 22.5916 10.5941 22.68C10.6974 22.7683 10.7174 22.8927 10.6539 22.9576Z" fill="#0A142F"/>
        <path d="M11.4753 23.3103C11.4481 23.395 11.3248 23.4329 11.2015 23.3968C11.0782 23.3608 10.9966 23.2598 11.0202 23.1733C11.0437 23.0867 11.1689 23.047 11.294 23.0867C11.4191 23.1264 11.4989 23.2219 11.4753 23.3103Z" fill="#0A142F"/>
        <path d="M12.3713 23.3716C12.3713 23.4599 12.2697 23.5357 12.1392 23.5375C12.0086 23.5393 11.9016 23.4672 11.9016 23.3788C11.9016 23.2905 12.0032 23.2147 12.1337 23.2129C12.2643 23.2111 12.3713 23.2814 12.3713 23.3716Z" fill="#0A142F"/>
        <path d="M13.2052 23.2329C13.2215 23.3212 13.1308 23.4132 13.0003 23.4348C12.8697 23.4564 12.7555 23.4042 12.7391 23.3176C12.7228 23.2311 12.8171 23.1373 12.9441 23.1139C13.071 23.0904 13.1889 23.1445 13.2052 23.2329Z" fill="#0A142F"/>
    </g>
</svg>
