<svg width="120" height="120" viewBox="0 0 120 120" fill="none" xmlns="http://www.w3.org/2000/svg">
    <rect width="120" height="120" rx="60" fill="url(#paint0_linear_1236_4112)" fill-opacity="0.07"/>
    <path d="M68.5951 74.6143C68.5951 74.8469 68.5099 75.0485 68.3394 75.219C68.1689 75.3895 67.9673 75.4748 67.7346 75.4748H41.9439C41.8005 75.4748 41.6797 75.4567 41.5814 75.4206C41.4831 75.3845 41.4023 75.3218 41.3392 75.2326C41.276 75.1433 41.2268 75.0716 41.1917 75.0174C41.1566 74.9633 41.1295 74.8605 41.1105 74.709C41.0914 74.5576 41.0824 74.4548 41.0834 74.4006V58.282H35.9247C35.4593 58.282 35.0561 58.112 34.7151 57.772C34.3741 57.432 34.2041 57.0288 34.2051 56.5624C34.2051 56.1322 34.3395 55.7651 34.6083 55.4612L43.2047 45.1452C43.5447 44.7511 43.9835 44.554 44.521 44.554C45.0586 44.554 45.4974 44.7511 45.8374 45.1452L54.4338 55.4612C54.7026 55.7661 54.837 56.1332 54.837 56.5624C54.837 57.0278 54.667 57.431 54.327 57.772C53.987 58.113 53.5838 58.283 53.1174 58.282H47.9587V68.598H63.4334C63.7203 68.598 63.9439 68.6963 64.1044 68.8929L68.4026 74.0516C68.528 74.2482 68.5906 74.4362 68.5906 74.6158L68.5951 74.6143ZM85.7894 63.4393C85.7894 63.8695 85.655 64.2366 85.3862 64.5405L76.7898 74.8565C76.4318 75.2687 75.993 75.4748 75.4735 75.4748C74.9539 75.4748 74.5151 75.2687 74.1571 74.8565L65.5607 64.5405C65.2919 64.2356 65.1575 63.8685 65.1575 63.4393C65.1575 62.9739 65.3275 62.5707 65.6675 62.2297C66.0075 61.8887 66.4107 61.7187 66.8771 61.7197H72.0358V51.4037H56.5611C56.2743 51.4037 56.0506 51.2964 55.8901 51.0818L51.5919 45.923C51.4666 45.7615 51.4039 45.5825 51.4039 45.3859C51.4039 45.1532 51.4891 44.9516 51.6596 44.7811C51.8301 44.6106 52.0317 44.5254 52.2644 44.5254H78.0551C78.1985 44.5254 78.3194 44.5434 78.4177 44.5796C78.5159 44.6157 78.5967 44.6783 78.6599 44.7676C78.7231 44.8569 78.7722 44.9286 78.8073 44.9827C78.8424 45.0369 78.8695 45.1397 78.8885 45.2912C78.9076 45.4426 78.9166 45.5454 78.9156 45.5996V61.7182H84.0744C84.5397 61.7182 84.9429 61.8882 85.2839 62.2282C85.6249 62.5682 85.7949 62.9714 85.7939 63.4377L85.7894 63.4393Z" fill="#1D9BF0"/>
    <rect x="1" y="1" width="118" height="118" rx="59" stroke="url(#paint1_linear_1236_4112)" stroke-opacity="0.4" stroke-width="2"/>
    <defs>
        <linearGradient id="paint0_linear_1236_4112" x1="111.5" y1="17.5" x2="-27" y2="161.5" gradientUnits="userSpaceOnUse">
            <stop stop-color="#1D9BF0"/>
            <stop offset="1" stop-color="#345CF0"/>
        </linearGradient>
        <linearGradient id="paint1_linear_1236_4112" x1="111.5" y1="17.5" x2="-27" y2="161.5" gradientUnits="userSpaceOnUse">
            <stop stop-color="#1D9BF0"/>
            <stop offset="1" stop-color="#345CF0"/>
        </linearGradient>
    </defs>
</svg>
