<svg width="120" height="120" viewBox="0 0 120 120" fill="none" xmlns="http://www.w3.org/2000/svg">
    <g filter="url(#filter0_b_1222_3719)">
        <rect width="120" height="120" rx="60" fill="url(#paint0_linear_1222_3719)" fill-opacity="0.15"/>
        <path fill-rule="evenodd" clip-rule="evenodd" d="M55.3363 41.3986C52.6523 41.7487 50.16 43.2031 48.5389 45.3652C47.0272 47.3816 46.2818 49.9871 46.5248 52.4072C46.7863 55.0148 47.8579 57.1879 49.7711 58.9911C50.1326 59.3318 50.4148 59.6229 50.3985 59.6379C50.382 59.653 50.0445 59.8281 49.6483 60.0269C49.2522 60.2259 48.5571 60.6392 48.1037 60.9455C44.0295 63.6991 41.4915 68.3773 41.4327 73.2426C41.4181 74.452 41.5033 74.876 41.9519 75.827C42.532 77.0566 43.7502 78.069 45.181 78.5106C45.579 78.6334 46.5323 78.6471 56.2296 78.6701C63.4201 78.687 67.0216 78.6681 67.3973 78.611C68.6437 78.4217 69.7348 77.8453 70.5287 76.9566C70.9881 76.4422 71.5765 75.2905 71.707 74.6502C71.8309 74.0431 71.8126 72.5552 71.669 71.521C71.063 67.1582 68.6329 63.2783 64.9816 60.8437C64.6113 60.5969 63.9609 60.2154 63.5363 59.996L62.7639 59.5972L63.2194 59.2153C63.7883 58.7383 64.1908 58.2993 64.7584 57.5365C66.9371 54.6089 67.3424 50.6017 65.803 47.2101C65.1755 45.8276 63.8823 44.2333 62.648 43.3203C60.6075 41.811 57.8104 41.0759 55.3363 41.3986ZM72.8231 53.369C72.4603 53.527 72.2119 53.7661 72.0054 54.1568C71.8644 54.4232 71.8324 54.6445 71.8075 55.5208L71.7776 56.5669L70.7358 56.5967C69.6185 56.6287 69.277 56.7313 68.886 57.1521C68.2856 57.7984 68.3358 58.9132 68.9938 59.5403C69.3918 59.9196 69.7138 60.0018 70.8005 60.0018H71.7929V60.8811C71.7929 62.0669 71.8888 62.4119 72.3459 62.8706C73.1796 63.7079 74.4702 63.5061 74.9908 62.4568C75.1825 62.0706 75.1986 61.9594 75.1986 61.02V60.0018H76.2127C77.1482 60.0018 77.2592 59.9857 77.6437 59.7931C78.6522 59.2885 78.8765 58.05 78.1164 57.183C77.6984 56.7064 77.2809 56.5821 76.0951 56.5821H75.1986V55.5856C75.1986 54.4945 75.1168 54.1712 74.739 53.7717C74.2596 53.2644 73.4527 53.0948 72.8231 53.369Z" fill="white"/>
        <rect x="1" y="1" width="118" height="118" rx="59" stroke="url(#paint1_linear_1222_3719)" stroke-opacity="0.7" stroke-width="2"/>
    </g>
    <defs>
        <filter id="filter0_b_1222_3719" x="-4" y="-4" width="128" height="128" filterUnits="userSpaceOnUse" color-interpolation-filters="sRGB">
            <feFlood flood-opacity="0" result="BackgroundImageFix"/>
            <feGaussianBlur in="BackgroundImage" stdDeviation="2"/>
            <feComposite in2="SourceAlpha" operator="in" result="effect1_backgroundBlur_1222_3719"/>
            <feBlend mode="normal" in="SourceGraphic" in2="effect1_backgroundBlur_1222_3719" result="shape"/>
        </filter>
        <linearGradient id="paint0_linear_1222_3719" x1="111.5" y1="17.5" x2="-27" y2="161.5" gradientUnits="userSpaceOnUse">
            <stop stop-color="#1D9BF0"/>
            <stop offset="1" stop-color="#345CF0"/>
        </linearGradient>
        <linearGradient id="paint1_linear_1222_3719" x1="111.5" y1="17.5" x2="-27" y2="161.5" gradientUnits="userSpaceOnUse">
            <stop stop-color="#1D9BF0"/>
            <stop offset="1" stop-color="#345CF0"/>
        </linearGradient>
    </defs>
</svg>
