<svg width="120" height="120" viewBox="0 0 120 120" fill="none" xmlns="http://www.w3.org/2000/svg">
    <rect width="120" height="120" rx="60" fill="url(#paint0_linear_1222_3757)" fill-opacity="0.15"/>
    <path d="M68.5956 74.6143C68.5956 74.8469 68.5104 75.0485 68.3399 75.219C68.1694 75.3895 67.9678 75.4748 67.7351 75.4748H41.9444C41.801 75.4748 41.6801 75.4567 41.5819 75.4206C41.4836 75.3845 41.4028 75.3218 41.3396 75.2326C41.2765 75.1433 41.2273 75.0716 41.1922 75.0174C41.1571 74.9633 41.13 74.8605 41.111 74.709C41.0919 74.5576 41.0829 74.4548 41.0839 74.4006V58.282H35.9251C35.4598 58.282 35.0566 58.112 34.7156 57.772C34.3746 57.432 34.2046 57.0288 34.2056 56.5624C34.2056 56.1322 34.34 55.7651 34.6088 55.4612L43.2051 45.1452C43.5452 44.7511 43.9839 44.554 44.5215 44.554C45.0591 44.554 45.4979 44.7511 45.8379 45.1452L54.4343 55.4612C54.7031 55.7661 54.8375 56.1332 54.8375 56.5624C54.8375 57.0278 54.6675 57.431 54.3275 57.772C53.9875 58.113 53.5843 58.283 53.1179 58.282H47.9592V68.598H63.4339C63.7207 68.598 63.9444 68.6963 64.1049 68.8929L68.4031 74.0516C68.5284 74.2482 68.5911 74.4362 68.5911 74.6158L68.5956 74.6143ZM85.7899 63.4393C85.7899 63.8695 85.6555 64.2366 85.3867 64.5405L76.7903 74.8565C76.4323 75.2687 75.9935 75.4748 75.4739 75.4748C74.9544 75.4748 74.5156 75.2687 74.1576 74.8565L65.5612 64.5405C65.2924 64.2356 65.158 63.8685 65.158 63.4393C65.158 62.9739 65.328 62.5707 65.668 62.2297C66.008 61.8887 66.4112 61.7187 66.8776 61.7197H72.0363V51.4037H56.5616C56.2747 51.4037 56.0511 51.2964 55.8906 51.0818L51.5924 45.923C51.467 45.7615 51.4044 45.5825 51.4044 45.3859C51.4044 45.1532 51.4896 44.9516 51.6601 44.7811C51.8306 44.6106 52.0322 44.5254 52.2649 44.5254H78.0556C78.199 44.5254 78.3199 44.5434 78.4181 44.5796C78.5164 44.6157 78.5972 44.6783 78.6604 44.7676C78.7235 44.8569 78.7727 44.9286 78.8078 44.9827C78.8429 45.0369 78.87 45.1397 78.889 45.2912C78.9081 45.4426 78.9171 45.5454 78.9161 45.5996V61.7182H84.0749C84.5402 61.7182 84.9434 61.8882 85.2844 62.2282C85.6254 62.5682 85.7954 62.9714 85.7944 63.4377L85.7899 63.4393Z" fill="white"/>
    <rect x="1" y="1" width="118" height="118" rx="59" stroke="url(#paint1_linear_1222_3757)" stroke-opacity="0.7" stroke-width="2"/>
    <defs>
        <linearGradient id="paint0_linear_1222_3757" x1="111.5" y1="17.5" x2="-27" y2="161.5" gradientUnits="userSpaceOnUse">
            <stop stop-color="#1D9BF0"/>
            <stop offset="1" stop-color="#345CF0"/>
        </linearGradient>
        <linearGradient id="paint1_linear_1222_3757" x1="111.5" y1="17.5" x2="-27" y2="161.5" gradientUnits="userSpaceOnUse">
            <stop stop-color="#1D9BF0"/>
            <stop offset="1" stop-color="#345CF0"/>
        </linearGradient>
    </defs>
</svg>
