<svg width="20" height="20" viewBox="0 0 20 20" fill="none" xmlns="http://www.w3.org/2000/svg">
    <path fill-rule="evenodd" clip-rule="evenodd" d="M9.40435 4.15974C9.74298 6.08951 8.98407 7.83525 7.70927 8.05894C6.43448 8.28263 5.12654 6.89958 4.78791 4.96981C4.44928 3.04003 5.2082 1.2943 6.48299 1.0706C7.75779 0.846908 9.06573 2.22996 9.40435 4.15974ZM10.3511 4.06116C10.0303 5.88942 10.8346 7.5583 12.1476 7.7887C13.4605 8.01909 14.785 6.72376 15.1058 4.89549C15.4266 3.06722 14.6223 1.39835 13.3093 1.16795C11.9963 0.937557 10.6719 2.23289 10.3511 4.06116ZM4.77783 12.8223C5.96124 12.2982 6.32739 10.5339 5.59564 8.88162C4.86389 7.22933 3.31134 6.31476 2.12793 6.83886C0.944519 7.36296 0.578375 9.12727 1.31013 10.7796C2.04188 12.4318 3.59442 13.3464 4.77783 12.8223ZM14.4228 8.32625C13.5612 9.91473 13.7852 11.7027 14.9229 12.3197C16.0606 12.9368 17.6813 12.1492 18.5428 10.5608C19.4043 8.97228 19.1804 7.18434 18.0427 6.5673C16.905 5.95025 15.2843 6.73776 14.4228 8.32625ZM9.89956 10.1556C8.68552 10.1769 6.06074 11.0777 4.38313 15.7147C4.25534 16.3536 3.81728 18.7408 5.83146 18.9521C6.53433 18.9734 7.62058 18.7178 8.81332 18.1214C9.17541 17.9723 11.1101 17.2748 12.8601 18.5474C13.6328 19.2179 16.391 18.9812 16.2559 17.0211C16.2559 16.5451 15.9761 15.3135 14.3993 12.9563C13.3834 11.4375 12.0116 9.95572 9.89956 10.1556Z" fill="#999999"/>
</svg>
