<svg width="19" height="21" viewBox="0 0 19 21" fill="none" xmlns="http://www.w3.org/2000/svg">
    <circle cx="10" cy="5" r="4" stroke="#ffffff" stroke-width="1.3"/>
    <path d="M9.5 11.65C13.8709 11.65 17.35 14.9876 17.35 19.0278H18.65C18.65 14.2007 14.5179 10.35 9.5 10.35V11.65ZM1.65 19.0278C1.65 14.9876 5.12906 11.65 9.5 11.65V10.35C4.4821 10.35 0.35 14.2007 0.35 19.0278H1.65ZM1.48733 20.15H17.5127V18.85H1.48733V20.15ZM0.35 19.0278C0.35 19.6788 0.88963 20.15 1.48733 20.15V18.85C1.55366 18.85 1.65 18.9081 1.65 19.0278H0.35ZM17.35 19.0278C17.35 18.9081 17.4463 18.85 17.5127 18.85V20.15C18.1104 20.15 18.65 19.6788 18.65 19.0278H17.35Z" fill="#ffffff"/>
</svg>
