<svg width="20" height="20" viewBox="0 0 20 20" fill="none" xmlns="http://www.w3.org/2000/svg">
    <path fill-rule="evenodd" clip-rule="evenodd" d="M9.40432 4.15968C9.74295 6.08945 8.98403 7.83518 7.70924 8.05888C6.43444 8.28257 5.1265 6.89952 4.78788 4.96975C4.44925 3.03997 5.20816 1.29424 6.48296 1.07054C7.75775 0.846847 9.06569 2.2299 9.40432 4.15968ZM10.351 4.06109C10.0302 5.88936 10.8345 7.55824 12.1475 7.78863C13.4605 8.01903 14.785 6.7237 15.1058 4.89543C15.4266 3.06716 14.6223 1.39829 13.3093 1.16789C11.9963 0.937496 10.6719 2.23283 10.351 4.06109ZM4.77783 12.8224C5.96124 12.2983 6.32739 10.5339 5.59564 8.88166C4.86389 7.22938 3.31134 6.3148 2.12793 6.8389C0.944519 7.363 0.578375 9.12731 1.31013 10.7796C2.04188 12.4319 3.59442 13.3465 4.77783 12.8224ZM14.4227 8.32629C13.5612 9.91477 13.7851 11.7027 14.9228 12.3198C16.0605 12.9368 17.6812 12.1493 18.5427 10.5608C19.4043 8.97232 19.1804 7.18438 18.0426 6.56734C16.9049 5.95029 15.2842 6.7378 14.4227 8.32629ZM9.89953 10.1556C8.68549 10.1769 6.06071 11.0776 4.3831 15.7146C4.25531 16.3536 3.81724 18.7407 5.83143 18.952C6.5343 18.9733 7.62054 18.7178 8.81329 18.1214C9.17537 17.9723 11.11 17.2747 12.8601 18.5474C13.6327 19.2178 16.391 18.9811 16.2559 17.0211C16.2559 16.5451 15.9761 15.3134 14.3992 12.9562C13.3833 11.4374 12.0116 9.95566 9.89953 10.1556Z" fill="white"/>
</svg>
