<svg width="22" height="17" viewBox="0 0 22 17" fill="none" xmlns="http://www.w3.org/2000/svg">
    <path d="M17.7568 0.533378C18.1201 0.187484 18.6036 -0.00374011 19.1052 5.544e-05C19.6068 0.00385099 20.0874 0.20237 20.4454 0.553722C20.8035 0.905075 21.011 1.38178 21.0243 1.88325C21.0375 2.38471 20.8555 2.87172 20.5165 3.2415L10.2256 16.1115C10.0487 16.3021 9.8351 16.4551 9.59769 16.5612C9.36027 16.6674 9.10388 16.7246 8.84385 16.7294C8.58382 16.7342 8.32548 16.6866 8.0843 16.5893C7.84311 16.492 7.62402 16.347 7.44013 16.1631L0.615668 9.33864C0.425618 9.16155 0.273183 8.948 0.167459 8.71071C0.0617336 8.47343 0.00488366 8.21729 0.000301039 7.95756C-0.00428158 7.69783 0.0434971 7.43984 0.140786 7.19897C0.238074 6.95811 0.38288 6.73931 0.566565 6.55563C0.75025 6.37194 0.96905 6.22713 1.20991 6.12985C1.45078 6.03256 1.70877 5.98478 1.9685 5.98936C2.22823 5.99394 2.48437 6.05079 2.72165 6.15652C2.95893 6.26224 3.17249 6.41468 3.34958 6.60473L8.75035 12.0029L17.7078 0.590121C17.7239 0.570264 17.7411 0.551319 17.7594 0.533378H17.7568Z" fill="white"/>
</svg>
